<mxfile host="app.diagrams.net" modified="2022-04-23T07:58:45.091Z" agent="5.0 (Macintosh; Intel Mac OS X 10_15_7) AppleWebKit/537.36 (KHTML, like Gecko) Chrome/100.0.4896.127 Safari/537.36" etag="WxfvBomD340LqH7dx-o0" version="17.4.6" type="github">
  <diagram id="IP2E7_a7XZUs67onMFyb" name="第 1 页">
    <mxGraphModel dx="968" dy="783" grid="1" gridSize="10" guides="1" tooltips="1" connect="1" arrows="1" fold="1" page="1" pageScale="1" pageWidth="1169" pageHeight="1654" math="0" shadow="0">
      <root>
        <mxCell id="0" />
        <mxCell id="1" parent="0" />
        <mxCell id="ALcrk5kfa60zqdkue-nD-1" value="" style="ellipse;whiteSpace=wrap;html=1;aspect=fixed;shadow=0;fontSize=27;strokeWidth=4;fillColor=none;sketch=1;strokeColor=#457B9D;fontColor=#1D3557;" vertex="1" parent="1">
          <mxGeometry x="220" y="357" width="560" height="560" as="geometry" />
        </mxCell>
        <mxCell id="ALcrk5kfa60zqdkue-nD-2" value="" style="shape=image;verticalLabelPosition=bottom;verticalAlign=top;aspect=fixed;imageAspect=0;image=data:image/svg+xml,PHN2ZyB4bWxuczpjYz0iaHR0cDovL2NyZWF0aXZlY29tbW9ucy5vcmcvbnMjIiB4bWxuczpkYz0iaHR0cDovL3B1cmwub3JnL2RjL2VsZW1lbnRzLzEuMS8iIHhtbG5zOmlua3NjYXBlPSJodHRwOi8vd3d3Lmlua3NjYXBlLm9yZy9uYW1lc3BhY2VzL2lua3NjYXBlIiB4bWxuczpyZGY9Imh0dHA6Ly93d3cudzMub3JnLzE5OTkvMDIvMjItcmRmLXN5bnRheC1ucyMiIHhtbG5zOnNvZGlwb2RpPSJodHRwOi8vc29kaXBvZGkuc291cmNlZm9yZ2UubmV0L0RURC9zb2RpcG9kaS0wLmR0ZCIgeG1sbnM6c3ZnPSJodHRwOi8vd3d3LnczLm9yZy8yMDAwL3N2ZyIgeG1sbnM9Imh0dHA6Ly93d3cudzMub3JnLzIwMDAvc3ZnIiB4bWxuczp4bGluaz0iaHR0cDovL3d3dy53My5vcmcvMTk5OS94bGluayIgdmVyc2lvbj0iMS4xIiBpZD0ic3ZnMTQzMzg3IiBpbmtzY2FwZTp2ZXJzaW9uPSIwLjkyLjMgKDI0MDU1NDYsIDIwMTgtMDMtMTEpIiBzb2RpcG9kaTpkb2NuYW1lPSJkYXRhYmFzZV9zZXJ2ZXIuc3ZnIiB4PSIwcHgiIHk9IjBweCIgdmlld0JveD0iMCAwIDYzLjA0IDc5LjQ5IiBzdHlsZT0iZW5hYmxlLWJhY2tncm91bmQ6bmV3IDAgMCA2My4wNCA3OS40OTsiIHhtbDpzcGFjZT0icHJlc2VydmUiPiYjeGE7PHNvZGlwb2RpOm5hbWVkdmlldyBib3JkZXJjb2xvcj0iIzY2NjY2NiIgYm9yZGVyb3BhY2l0eT0iMSIgZml0LW1hcmdpbi1ib3R0b209IjAiIGZpdC1tYXJnaW4tbGVmdD0iMCIgZml0LW1hcmdpbi1yaWdodD0iMCIgZml0LW1hcmdpbi10b3A9IjAiIGdyaWR0b2xlcmFuY2U9IjEwIiBndWlkZXRvbGVyYW5jZT0iMTAiIGlkPSJuYW1lZHZpZXcxNDMzODkiIGlua3NjYXBlOmN1cnJlbnQtbGF5ZXI9InN2ZzE0MzM4NyIgaW5rc2NhcGU6Y3g9IjQyLjAyOTk4NiIgaW5rc2NhcGU6Y3k9IjUyLjk5MTY0OCIgaW5rc2NhcGU6cGFnZW9wYWNpdHk9IjAiIGlua3NjYXBlOnBhZ2VzaGFkb3c9IjIiIGlua3NjYXBlOndpbmRvdy1oZWlnaHQ9IjEwMTciIGlua3NjYXBlOndpbmRvdy1tYXhpbWl6ZWQ9IjEiIGlua3NjYXBlOndpbmRvdy13aWR0aD0iMTkyMCIgaW5rc2NhcGU6d2luZG93LXg9Ii04IiBpbmtzY2FwZTp3aW5kb3cteT0iLTgiIGlua3NjYXBlOnpvb209IjguMDI4NDkxNSIgb2JqZWN0dG9sZXJhbmNlPSIxMCIgcGFnZWNvbG9yPSIjZmZmZmZmIiBzaG93Z3JpZD0iZmFsc2UiPiYjeGE7CTwvc29kaXBvZGk6bmFtZWR2aWV3PiYjeGE7PGcgaWQ9ImcxNDMzODUiIHRyYW5zZm9ybT0idHJhbnNsYXRlKC0wLjc1LC0wLjc1MDE2NjY1KSI+JiN4YTsJPHRpdGxlIGlkPSJ0aXRsZTE0MzI4NCI+UGFnZS0xPC90aXRsZT4mI3hhOwk8ZyBpZD0iZ3JvdXA3ODc0LTEiIHRyYW5zZm9ybT0idHJhbnNsYXRlKDEuNSwtMS41KSI+JiN4YTsJCTx0aXRsZSBpZD0idGl0bGUxNDMyODYiPkRhdGFiYXNlIFNlcnZlcjwvdGl0bGU+JiN4YTsJCTxnIGlkPSJncm91cDc4NzUtMiIgdHJhbnNmb3JtPSJ0cmFuc2xhdGUoMCwtOS43NDI1KSI+JiN4YTsJCQk8dGl0bGUgaWQ9InRpdGxlMTQzMjg4Ij5nMzExNC4yMTA4NDwvdGl0bGU+JiN4YTsJCQk8ZyBpZD0ic2hhcGU3ODc2LTMiPiYjeGE7CQkJCTx0aXRsZSBpZD0idGl0bGUxNDMyOTAiPnJlY3QzMDg2PC90aXRsZT4mI3hhOwkJCQkmI3hhOwkJCQkJPHJlY3QgaWQ9InJlY3QxNDMyOTIiIHk9IjEyLjc0IiBzdHlsZT0iZmlsbDojRkZGRkZGO3N0cm9rZTojNTU2QThBO3N0cm9rZS13aWR0aDoxLjU7c3Ryb2tlLW1pdGVybGltaXQ6MzsiIHdpZHRoPSIzOS43NSIgaGVpZ2h0PSI2OC4yNSIvPiYjeGE7CQkJPC9nPiYjeGE7CQkJPGcgaWQ9Imdyb3VwNzg3Ny01IiB0cmFuc2Zvcm09InRyYW5zbGF0ZSgxLjUsLTAuNzUpIj4mI3hhOwkJCQk8dGl0bGUgaWQ9InRpdGxlMTQzMjk1Ij5nMzEwNjwvdGl0bGU+JiN4YTsJCQkJPGcgaWQ9InNoYXBlNzg3OC02IiB0cmFuc2Zvcm09InRyYW5zbGF0ZSgxOCkiPiYjeGE7CQkJCQk8dGl0bGUgaWQ9InRpdGxlMTQzMjk3Ij5yZWN0MzA4ODwvdGl0bGU+JiN4YTsJCQkJCTxyZWN0IGlkPSJyZWN0MTQzMjk5IiB5PSIxNC4yNCIgc3R5bGU9ImZpbGw6I0U1RTVFNTsiIHdpZHRoPSIxOS41IiBoZWlnaHQ9IjY2Ljc1Ii8+JiN4YTsJCQkJPC9nPiYjeGE7CQkJCTxnIGlkPSJzaGFwZTc4NzktOCIgdHJhbnNmb3JtPSJ0cmFuc2xhdGUoMCwtNDgpIj4mI3hhOwkJCQkJPHRpdGxlIGlkPSJ0aXRsZTE0MzMwMiI+cmVjdDMwOTA8L3RpdGxlPiYjeGE7CQkJCQk8cmVjdCBpZD0icmVjdDE0MzMwNCIgeT0iNzguNzQiIHN0eWxlPSJmaWxsOiMyQkM3RjQ7IiB3aWR0aD0iMTgiIGhlaWdodD0iMi4yNSIvPiYjeGE7CQkJCTwvZz4mI3hhOwkJCQk8ZyBpZD0ic2hhcGU3ODgwLTEwIiB0cmFuc2Zvcm09InRyYW5zbGF0ZSgwLC01OC41KSI+JiN4YTsJCQkJCTx0aXRsZSBpZD0idGl0bGUxNDMzMDciPnBvbHlnb24zMDkyPC90aXRsZT4mI3hhOwkJCQkJPHJlY3QgaWQ9InJlY3QxNDMzMDkiIHk9Ijc4Ljc0IiBzdHlsZT0iZmlsbDpub25lOyIgd2lkdGg9IjI3IiBoZWlnaHQ9IjIuMjUiLz4mI3hhOwkJCQk8L2c+JiN4YTsJCQkJPGcgaWQ9InNoYXBlNzg4MS0xMiIgdHJhbnNmb3JtPSJ0cmFuc2xhdGUoMCwtNTguNSkiPiYjeGE7CQkJCQk8dGl0bGUgaWQ9InRpdGxlMTQzMzEyIj5wb2x5bGluZTMwOTQ8L3RpdGxlPiYjeGE7CQkJCQk8cmVjdCBpZD0icmVjdDE0MzMxNCIgeT0iNzguNzQiIHN0eWxlPSJmaWxsOm5vbmU7IiB3aWR0aD0iMjciIGhlaWdodD0iMi4yNSIvPiYjeGE7CQkJCTwvZz4mI3hhOwkJCQk8ZyBpZD0ic2hhcGU3ODgyLTE0IiB0cmFuc2Zvcm09InRyYW5zbGF0ZSgwLC01My4yNSkiPiYjeGE7CQkJCQk8dGl0bGUgaWQ9InRpdGxlMTQzMzE3Ij5yZWN0MzA5NjwvdGl0bGU+JiN4YTsJCQkJCTxyZWN0IGlkPSJyZWN0MTQzMzE5IiB5PSI3OC43NCIgc3R5bGU9ImZpbGw6IzJCQzdGNDsiIHdpZHRoPSIxOCIgaGVpZ2h0PSIyLjI1Ii8+JiN4YTsJCQkJPC9nPiYjeGE7CQkJCTxnIGlkPSJzaGFwZTc4ODMtMTYiIHRyYW5zZm9ybT0idHJhbnNsYXRlKDAsLTU4LjUpIj4mI3hhOwkJCQkJPHRpdGxlIGlkPSJ0aXRsZTE0MzMyMiI+cmVjdDMwOTg8L3RpdGxlPiYjeGE7CQkJCQk8cmVjdCBpZD0icmVjdDE0MzMyNCIgeT0iNzguNzQiIHN0eWxlPSJmaWxsOiMyQkM3RjQ7IiB3aWR0aD0iMTgiIGhlaWdodD0iMi4yNSIvPiYjeGE7CQkJCTwvZz4mI3hhOwkJCQk8ZyBpZD0ic2hhcGU3ODg0LTE4IiB0cmFuc2Zvcm09InRyYW5zbGF0ZSgxOCwtNDgpIj4mI3hhOwkJCQkJPHRpdGxlIGlkPSJ0aXRsZTE0MzMyNyI+cmVjdDMxMDA8L3RpdGxlPiYjeGE7CQkJCQk8cmVjdCBpZD0icmVjdDE0MzMyOSIgeT0iNzguNzQiIHN0eWxlPSJmaWxsOiM1NTZBOEE7IiB3aWR0aD0iMTkuNSIgaGVpZ2h0PSIyLjI1Ii8+JiN4YTsJCQkJPC9nPiYjeGE7CQkJCTxnIGlkPSJzaGFwZTc4ODUtMjAiIHRyYW5zZm9ybT0idHJhbnNsYXRlKDE4LC01My4yNSkiPiYjeGE7CQkJCQk8dGl0bGUgaWQ9InRpdGxlMTQzMzMyIj5yZWN0MzEwMjwvdGl0bGU+JiN4YTsJCQkJCTxyZWN0IGlkPSJyZWN0MTQzMzM0IiB5PSI3OC43NCIgc3R5bGU9ImZpbGw6IzU1NkE4QTsiIHdpZHRoPSIxOS41IiBoZWlnaHQ9IjIuMjUiLz4mI3hhOwkJCQk8L2c+JiN4YTsJCQkJPGcgaWQ9InNoYXBlNzg4Ni0yMiIgdHJhbnNmb3JtPSJ0cmFuc2xhdGUoMTgsLTU4LjUpIj4mI3hhOwkJCQkJPHRpdGxlIGlkPSJ0aXRsZTE0MzMzNyI+cmVjdDMxMDQ8L3RpdGxlPiYjeGE7CQkJCQk8cmVjdCBpZD0icmVjdDE0MzMzOSIgeT0iNzguNzQiIHN0eWxlPSJmaWxsOiM1NTZBOEE7IiB3aWR0aD0iMTkuNSIgaGVpZ2h0PSIyLjI1Ii8+JiN4YTsJCQkJPC9nPiYjeGE7CQkJPC9nPiYjeGE7CQkJPGcgaWQ9InNoYXBlNzg4Ny0yNCIgdHJhbnNmb3JtPSJ0cmFuc2xhdGUoMC43NSwtNTkuMjUpIj4mI3hhOwkJCQk8dGl0bGUgaWQ9InRpdGxlMTQzMzQzIj5yZWN0MzEwODwvdGl0bGU+JiN4YTsJCQkJPHJlY3QgaWQ9InJlY3QxNDMzNDUiIHk9Ijc4Ljc0IiBzdHlsZT0iZmlsbDojNTU2QThBOyIgd2lkdGg9IjIuMjUiIGhlaWdodD0iMi4yNSIvPiYjeGE7CQkJPC9nPiYjeGE7CQkJPGcgaWQ9InNoYXBlNzg4OC0yNiIgdHJhbnNmb3JtPSJ0cmFuc2xhdGUoMC43NSwtNTQpIj4mI3hhOwkJCQk8dGl0bGUgaWQ9InRpdGxlMTQzMzQ4Ij5yZWN0MzExMDwvdGl0bGU+JiN4YTsJCQkJPHJlY3QgaWQ9InJlY3QxNDMzNTAiIHk9Ijc4Ljc0IiBzdHlsZT0iZmlsbDojNTU2QThBOyIgd2lkdGg9IjIuMjUiIGhlaWdodD0iMi4yNSIvPiYjeGE7CQkJPC9nPiYjeGE7CQkJPGcgaWQ9InNoYXBlNzg4OS0yOCIgdHJhbnNmb3JtPSJ0cmFuc2xhdGUoMC43NSwtNDguNzUpIj4mI3hhOwkJCQk8dGl0bGUgaWQ9InRpdGxlMTQzMzUzIj5yZWN0MzExMjwvdGl0bGU+JiN4YTsJCQkJPHJlY3QgaWQ9InJlY3QxNDMzNTUiIHk9Ijc4Ljc0IiBzdHlsZT0iZmlsbDojNTU2QThBOyIgd2lkdGg9IjIuMjUiIGhlaWdodD0iMi4yNSIvPiYjeGE7CQkJPC9nPiYjeGE7CQk8L2c+JiN4YTsJCTxnIGlkPSJncm91cDc4OTAtMzAiIHRyYW5zZm9ybT0idHJhbnNsYXRlKDI2LjI1KSI+JiN4YTsJCQk8dGl0bGUgaWQ9InRpdGxlMTQzMzU5Ij5nMzEyNC4yMTA5OTwvdGl0bGU+JiN4YTsJCQk8ZyBpZD0ic2hhcGU3ODkxLTMxIj4mI3hhOwkJCQk8dGl0bGUgaWQ9InRpdGxlMTQzMzYxIj5wYXRoMzExNjwvdGl0bGU+JiN4YTsJCQkJPHBhdGggaWQ9InBhdGgxNDMzNjMiIGlua3NjYXBlOmNvbm5lY3Rvci1jdXJ2YXR1cmU9IjAiIHN0eWxlPSJmaWxsOiNGRkZGRkY7IiBkPSJNMzEuNzksNDAuODJsLTEwLjM1LDAuMDlMMCw0MS4wOXYzMy4zNSAgICAgIGMwLDMuNDIsNy41LDYuMzcsMTcuMjUsNi41NWgwLjM3YzEuMzIsMCwyLjYtMC4wNywzLjgyLTAuMTljMy41Ny0wLjIyLDcuMDgtMS4wNywxMC4zNS0yLjUzYzIuMTktMS4wOSwzLjQ2LTIuNDIsMy40Ni0zLjgzICAgICAgVjQwLjc5TDMxLjc5LDQwLjgyeiIvPiYjeGE7CQkJPC9nPiYjeGE7CQkJPGcgaWQ9InNoYXBlNzg5Mi0zMyIgdHJhbnNmb3JtPSJ0cmFuc2xhdGUoMjEuMTUsLTAuMTg3NSkiPiYjeGE7CQkJCTx0aXRsZSBpZD0idGl0bGUxNDMzNjYiPnBhdGgzMTE4PC90aXRsZT4mI3hhOwkJCQk8cGF0aCBpZD0icGF0aDE0MzM2OCIgaW5rc2NhcGU6Y29ubmVjdG9yLWN1cnZhdHVyZT0iMCIgc3R5bGU9ImZpbGw6I0U1RTVFNTsiIGQ9Ik0xMC4zNSw0MS4wMXYzNy40NSAgICAgIEM3LjA4LDc5LjkyLDMuNTcsODAuNzcsMCw4MC45OVY0MS4xTDEwLjM1LDQxLjAxeiIvPiYjeGE7CQkJPC9nPiYjeGE7CQkJPGcgaWQ9InNoYXBlNzg5My0zNSI+JiN4YTsJCQkJPHRpdGxlIGlkPSJ0aXRsZTE0MzM3MSI+cGF0aDMxMjA8L3RpdGxlPiYjeGE7CQkJCTxwYXRoIGlkPSJwYXRoMTQzMzczIiBpbmtzY2FwZTpjb25uZWN0b3ItY3VydmF0dXJlPSIwIiBzdHlsZT0iZmlsbDpub25lOyIgZD0iTTAsNDEuMDl2MzMuMzVjMCwzLjQyLDcuNDYsNi4zNywxNy4yNSw2LjU1aDAuMzcgICAgICBjOS45Ny0wLjExLDE3LjYzLTMuMDksMTcuNjMtNi41NVY0MC43OUwwLDQxLjA5eiIvPiYjeGE7CQkJCSYjeGE7CQkJCQk8cGF0aCBpZD0icGF0aDE0MzM3NSIgaW5rc2NhcGU6Y29ubmVjdG9yLWN1cnZhdHVyZT0iMCIgc3R5bGU9ImZpbGw6bm9uZTtzdHJva2U6IzU1NkE4QTtzdHJva2Utd2lkdGg6MS41O3N0cm9rZS1taXRlcmxpbWl0OjM7IiBkPSIgICAgICBNMCw0MS4wOXYzMy4zNWMwLDMuNDIsNy40Niw2LjM3LDE3LjI1LDYuNTVoMC4zN2M5Ljk3LTAuMTEsMTcuNjMtMy4wOSwxNy42My02LjU1VjQwLjc5Ii8+JiN4YTsJCQk8L2c+JiN4YTsJCQk8ZyBpZD0ic2hhcGU3ODk0LTM4IiB0cmFuc2Zvcm09InRyYW5zbGF0ZSgwLjA0NSwtMzMuNDQyNSkiPiYjeGE7CQkJCTx0aXRsZSBpZD0idGl0bGUxNDMzNzgiPnBhdGgzMTIyPC90aXRsZT4mI3hhOwkJCQkmI3hhOwkJCQkJPHBhdGggaWQ9InBhdGgxNDMzODAiIGlua3NjYXBlOmNvbm5lY3Rvci1jdXJ2YXR1cmU9IjAiIHN0eWxlPSJmaWxsOiNCQUQ4MEE7c3Ryb2tlOiM1NTZBOEE7c3Ryb2tlLXdpZHRoOjEuNTtzdHJva2UtbWl0ZXJsaW1pdDozOyIgZD0iICAgICAgTTM1LjI1LDc0LjYyYzAsMy41Mi03Ljg5LDYuMzctMTcuNjMsNi4zN0M3Ljg5LDgwLjk5LDAsNzguMTQsMCw3NC42MmMwLTMuNTEsOC4xMy02LjM2LDE3Ljg2LTYuMzYgICAgICBDMjcuNTgsNjguMjYsMzUuMjUsNzEuMTEsMzUuMjUsNzQuNjJ6Ii8+JiN4YTsJCQk8L2c+JiN4YTsJCTwvZz4mI3hhOwk8L2c+JiN4YTs8L2c+JiN4YTs8L3N2Zz4=;shadow=0;dashed=1;dashPattern=1 1;fontSize=27;strokeWidth=3;fillColor=none;sketch=1;strokeColor=#457B9D;fontColor=#1D3557;" vertex="1" parent="1">
          <mxGeometry x="452.15" y="300" width="95.7" height="120" as="geometry" />
        </mxCell>
        <mxCell id="ALcrk5kfa60zqdkue-nD-3" value="" style="shape=image;verticalLabelPosition=bottom;verticalAlign=top;aspect=fixed;imageAspect=0;image=data:image/svg+xml,PHN2ZyB4bWxuczpjYz0iaHR0cDovL2NyZWF0aXZlY29tbW9ucy5vcmcvbnMjIiB4bWxuczpkYz0iaHR0cDovL3B1cmwub3JnL2RjL2VsZW1lbnRzLzEuMS8iIHhtbG5zOmlua3NjYXBlPSJodHRwOi8vd3d3Lmlua3NjYXBlLm9yZy9uYW1lc3BhY2VzL2lua3NjYXBlIiB4bWxuczpyZGY9Imh0dHA6Ly93d3cudzMub3JnLzE5OTkvMDIvMjItcmRmLXN5bnRheC1ucyMiIHhtbG5zOnNvZGlwb2RpPSJodHRwOi8vc29kaXBvZGkuc291cmNlZm9yZ2UubmV0L0RURC9zb2RpcG9kaS0wLmR0ZCIgeG1sbnM6c3ZnPSJodHRwOi8vd3d3LnczLm9yZy8yMDAwL3N2ZyIgeG1sbnM9Imh0dHA6Ly93d3cudzMub3JnLzIwMDAvc3ZnIiB4bWxuczp4bGluaz0iaHR0cDovL3d3dy53My5vcmcvMTk5OS94bGluayIgdmVyc2lvbj0iMS4xIiBpZD0ic3ZnMTQzMzg3IiBpbmtzY2FwZTp2ZXJzaW9uPSIwLjkyLjMgKDI0MDU1NDYsIDIwMTgtMDMtMTEpIiBzb2RpcG9kaTpkb2NuYW1lPSJkYXRhYmFzZV9zZXJ2ZXIuc3ZnIiB4PSIwcHgiIHk9IjBweCIgdmlld0JveD0iMCAwIDYzLjA0IDc5LjQ5IiBzdHlsZT0iZW5hYmxlLWJhY2tncm91bmQ6bmV3IDAgMCA2My4wNCA3OS40OTsiIHhtbDpzcGFjZT0icHJlc2VydmUiPiYjeGE7PHNvZGlwb2RpOm5hbWVkdmlldyBib3JkZXJjb2xvcj0iIzY2NjY2NiIgYm9yZGVyb3BhY2l0eT0iMSIgZml0LW1hcmdpbi1ib3R0b209IjAiIGZpdC1tYXJnaW4tbGVmdD0iMCIgZml0LW1hcmdpbi1yaWdodD0iMCIgZml0LW1hcmdpbi10b3A9IjAiIGdyaWR0b2xlcmFuY2U9IjEwIiBndWlkZXRvbGVyYW5jZT0iMTAiIGlkPSJuYW1lZHZpZXcxNDMzODkiIGlua3NjYXBlOmN1cnJlbnQtbGF5ZXI9InN2ZzE0MzM4NyIgaW5rc2NhcGU6Y3g9IjQyLjAyOTk4NiIgaW5rc2NhcGU6Y3k9IjUyLjk5MTY0OCIgaW5rc2NhcGU6cGFnZW9wYWNpdHk9IjAiIGlua3NjYXBlOnBhZ2VzaGFkb3c9IjIiIGlua3NjYXBlOndpbmRvdy1oZWlnaHQ9IjEwMTciIGlua3NjYXBlOndpbmRvdy1tYXhpbWl6ZWQ9IjEiIGlua3NjYXBlOndpbmRvdy13aWR0aD0iMTkyMCIgaW5rc2NhcGU6d2luZG93LXg9Ii04IiBpbmtzY2FwZTp3aW5kb3cteT0iLTgiIGlua3NjYXBlOnpvb209IjguMDI4NDkxNSIgb2JqZWN0dG9sZXJhbmNlPSIxMCIgcGFnZWNvbG9yPSIjZmZmZmZmIiBzaG93Z3JpZD0iZmFsc2UiPiYjeGE7CTwvc29kaXBvZGk6bmFtZWR2aWV3PiYjeGE7PGcgaWQ9ImcxNDMzODUiIHRyYW5zZm9ybT0idHJhbnNsYXRlKC0wLjc1LC0wLjc1MDE2NjY1KSI+JiN4YTsJPHRpdGxlIGlkPSJ0aXRsZTE0MzI4NCI+UGFnZS0xPC90aXRsZT4mI3hhOwk8ZyBpZD0iZ3JvdXA3ODc0LTEiIHRyYW5zZm9ybT0idHJhbnNsYXRlKDEuNSwtMS41KSI+JiN4YTsJCTx0aXRsZSBpZD0idGl0bGUxNDMyODYiPkRhdGFiYXNlIFNlcnZlcjwvdGl0bGU+JiN4YTsJCTxnIGlkPSJncm91cDc4NzUtMiIgdHJhbnNmb3JtPSJ0cmFuc2xhdGUoMCwtOS43NDI1KSI+JiN4YTsJCQk8dGl0bGUgaWQ9InRpdGxlMTQzMjg4Ij5nMzExNC4yMTA4NDwvdGl0bGU+JiN4YTsJCQk8ZyBpZD0ic2hhcGU3ODc2LTMiPiYjeGE7CQkJCTx0aXRsZSBpZD0idGl0bGUxNDMyOTAiPnJlY3QzMDg2PC90aXRsZT4mI3hhOwkJCQkmI3hhOwkJCQkJPHJlY3QgaWQ9InJlY3QxNDMyOTIiIHk9IjEyLjc0IiBzdHlsZT0iZmlsbDojRkZGRkZGO3N0cm9rZTojNTU2QThBO3N0cm9rZS13aWR0aDoxLjU7c3Ryb2tlLW1pdGVybGltaXQ6MzsiIHdpZHRoPSIzOS43NSIgaGVpZ2h0PSI2OC4yNSIvPiYjeGE7CQkJPC9nPiYjeGE7CQkJPGcgaWQ9Imdyb3VwNzg3Ny01IiB0cmFuc2Zvcm09InRyYW5zbGF0ZSgxLjUsLTAuNzUpIj4mI3hhOwkJCQk8dGl0bGUgaWQ9InRpdGxlMTQzMjk1Ij5nMzEwNjwvdGl0bGU+JiN4YTsJCQkJPGcgaWQ9InNoYXBlNzg3OC02IiB0cmFuc2Zvcm09InRyYW5zbGF0ZSgxOCkiPiYjeGE7CQkJCQk8dGl0bGUgaWQ9InRpdGxlMTQzMjk3Ij5yZWN0MzA4ODwvdGl0bGU+JiN4YTsJCQkJCTxyZWN0IGlkPSJyZWN0MTQzMjk5IiB5PSIxNC4yNCIgc3R5bGU9ImZpbGw6I0U1RTVFNTsiIHdpZHRoPSIxOS41IiBoZWlnaHQ9IjY2Ljc1Ii8+JiN4YTsJCQkJPC9nPiYjeGE7CQkJCTxnIGlkPSJzaGFwZTc4NzktOCIgdHJhbnNmb3JtPSJ0cmFuc2xhdGUoMCwtNDgpIj4mI3hhOwkJCQkJPHRpdGxlIGlkPSJ0aXRsZTE0MzMwMiI+cmVjdDMwOTA8L3RpdGxlPiYjeGE7CQkJCQk8cmVjdCBpZD0icmVjdDE0MzMwNCIgeT0iNzguNzQiIHN0eWxlPSJmaWxsOiMyQkM3RjQ7IiB3aWR0aD0iMTgiIGhlaWdodD0iMi4yNSIvPiYjeGE7CQkJCTwvZz4mI3hhOwkJCQk8ZyBpZD0ic2hhcGU3ODgwLTEwIiB0cmFuc2Zvcm09InRyYW5zbGF0ZSgwLC01OC41KSI+JiN4YTsJCQkJCTx0aXRsZSBpZD0idGl0bGUxNDMzMDciPnBvbHlnb24zMDkyPC90aXRsZT4mI3hhOwkJCQkJPHJlY3QgaWQ9InJlY3QxNDMzMDkiIHk9Ijc4Ljc0IiBzdHlsZT0iZmlsbDpub25lOyIgd2lkdGg9IjI3IiBoZWlnaHQ9IjIuMjUiLz4mI3hhOwkJCQk8L2c+JiN4YTsJCQkJPGcgaWQ9InNoYXBlNzg4MS0xMiIgdHJhbnNmb3JtPSJ0cmFuc2xhdGUoMCwtNTguNSkiPiYjeGE7CQkJCQk8dGl0bGUgaWQ9InRpdGxlMTQzMzEyIj5wb2x5bGluZTMwOTQ8L3RpdGxlPiYjeGE7CQkJCQk8cmVjdCBpZD0icmVjdDE0MzMxNCIgeT0iNzguNzQiIHN0eWxlPSJmaWxsOm5vbmU7IiB3aWR0aD0iMjciIGhlaWdodD0iMi4yNSIvPiYjeGE7CQkJCTwvZz4mI3hhOwkJCQk8ZyBpZD0ic2hhcGU3ODgyLTE0IiB0cmFuc2Zvcm09InRyYW5zbGF0ZSgwLC01My4yNSkiPiYjeGE7CQkJCQk8dGl0bGUgaWQ9InRpdGxlMTQzMzE3Ij5yZWN0MzA5NjwvdGl0bGU+JiN4YTsJCQkJCTxyZWN0IGlkPSJyZWN0MTQzMzE5IiB5PSI3OC43NCIgc3R5bGU9ImZpbGw6IzJCQzdGNDsiIHdpZHRoPSIxOCIgaGVpZ2h0PSIyLjI1Ii8+JiN4YTsJCQkJPC9nPiYjeGE7CQkJCTxnIGlkPSJzaGFwZTc4ODMtMTYiIHRyYW5zZm9ybT0idHJhbnNsYXRlKDAsLTU4LjUpIj4mI3hhOwkJCQkJPHRpdGxlIGlkPSJ0aXRsZTE0MzMyMiI+cmVjdDMwOTg8L3RpdGxlPiYjeGE7CQkJCQk8cmVjdCBpZD0icmVjdDE0MzMyNCIgeT0iNzguNzQiIHN0eWxlPSJmaWxsOiMyQkM3RjQ7IiB3aWR0aD0iMTgiIGhlaWdodD0iMi4yNSIvPiYjeGE7CQkJCTwvZz4mI3hhOwkJCQk8ZyBpZD0ic2hhcGU3ODg0LTE4IiB0cmFuc2Zvcm09InRyYW5zbGF0ZSgxOCwtNDgpIj4mI3hhOwkJCQkJPHRpdGxlIGlkPSJ0aXRsZTE0MzMyNyI+cmVjdDMxMDA8L3RpdGxlPiYjeGE7CQkJCQk8cmVjdCBpZD0icmVjdDE0MzMyOSIgeT0iNzguNzQiIHN0eWxlPSJmaWxsOiM1NTZBOEE7IiB3aWR0aD0iMTkuNSIgaGVpZ2h0PSIyLjI1Ii8+JiN4YTsJCQkJPC9nPiYjeGE7CQkJCTxnIGlkPSJzaGFwZTc4ODUtMjAiIHRyYW5zZm9ybT0idHJhbnNsYXRlKDE4LC01My4yNSkiPiYjeGE7CQkJCQk8dGl0bGUgaWQ9InRpdGxlMTQzMzMyIj5yZWN0MzEwMjwvdGl0bGU+JiN4YTsJCQkJCTxyZWN0IGlkPSJyZWN0MTQzMzM0IiB5PSI3OC43NCIgc3R5bGU9ImZpbGw6IzU1NkE4QTsiIHdpZHRoPSIxOS41IiBoZWlnaHQ9IjIuMjUiLz4mI3hhOwkJCQk8L2c+JiN4YTsJCQkJPGcgaWQ9InNoYXBlNzg4Ni0yMiIgdHJhbnNmb3JtPSJ0cmFuc2xhdGUoMTgsLTU4LjUpIj4mI3hhOwkJCQkJPHRpdGxlIGlkPSJ0aXRsZTE0MzMzNyI+cmVjdDMxMDQ8L3RpdGxlPiYjeGE7CQkJCQk8cmVjdCBpZD0icmVjdDE0MzMzOSIgeT0iNzguNzQiIHN0eWxlPSJmaWxsOiM1NTZBOEE7IiB3aWR0aD0iMTkuNSIgaGVpZ2h0PSIyLjI1Ii8+JiN4YTsJCQkJPC9nPiYjeGE7CQkJPC9nPiYjeGE7CQkJPGcgaWQ9InNoYXBlNzg4Ny0yNCIgdHJhbnNmb3JtPSJ0cmFuc2xhdGUoMC43NSwtNTkuMjUpIj4mI3hhOwkJCQk8dGl0bGUgaWQ9InRpdGxlMTQzMzQzIj5yZWN0MzEwODwvdGl0bGU+JiN4YTsJCQkJPHJlY3QgaWQ9InJlY3QxNDMzNDUiIHk9Ijc4Ljc0IiBzdHlsZT0iZmlsbDojNTU2QThBOyIgd2lkdGg9IjIuMjUiIGhlaWdodD0iMi4yNSIvPiYjeGE7CQkJPC9nPiYjeGE7CQkJPGcgaWQ9InNoYXBlNzg4OC0yNiIgdHJhbnNmb3JtPSJ0cmFuc2xhdGUoMC43NSwtNTQpIj4mI3hhOwkJCQk8dGl0bGUgaWQ9InRpdGxlMTQzMzQ4Ij5yZWN0MzExMDwvdGl0bGU+JiN4YTsJCQkJPHJlY3QgaWQ9InJlY3QxNDMzNTAiIHk9Ijc4Ljc0IiBzdHlsZT0iZmlsbDojNTU2QThBOyIgd2lkdGg9IjIuMjUiIGhlaWdodD0iMi4yNSIvPiYjeGE7CQkJPC9nPiYjeGE7CQkJPGcgaWQ9InNoYXBlNzg4OS0yOCIgdHJhbnNmb3JtPSJ0cmFuc2xhdGUoMC43NSwtNDguNzUpIj4mI3hhOwkJCQk8dGl0bGUgaWQ9InRpdGxlMTQzMzUzIj5yZWN0MzExMjwvdGl0bGU+JiN4YTsJCQkJPHJlY3QgaWQ9InJlY3QxNDMzNTUiIHk9Ijc4Ljc0IiBzdHlsZT0iZmlsbDojNTU2QThBOyIgd2lkdGg9IjIuMjUiIGhlaWdodD0iMi4yNSIvPiYjeGE7CQkJPC9nPiYjeGE7CQk8L2c+JiN4YTsJCTxnIGlkPSJncm91cDc4OTAtMzAiIHRyYW5zZm9ybT0idHJhbnNsYXRlKDI2LjI1KSI+JiN4YTsJCQk8dGl0bGUgaWQ9InRpdGxlMTQzMzU5Ij5nMzEyNC4yMTA5OTwvdGl0bGU+JiN4YTsJCQk8ZyBpZD0ic2hhcGU3ODkxLTMxIj4mI3hhOwkJCQk8dGl0bGUgaWQ9InRpdGxlMTQzMzYxIj5wYXRoMzExNjwvdGl0bGU+JiN4YTsJCQkJPHBhdGggaWQ9InBhdGgxNDMzNjMiIGlua3NjYXBlOmNvbm5lY3Rvci1jdXJ2YXR1cmU9IjAiIHN0eWxlPSJmaWxsOiNGRkZGRkY7IiBkPSJNMzEuNzksNDAuODJsLTEwLjM1LDAuMDlMMCw0MS4wOXYzMy4zNSAgICAgIGMwLDMuNDIsNy41LDYuMzcsMTcuMjUsNi41NWgwLjM3YzEuMzIsMCwyLjYtMC4wNywzLjgyLTAuMTljMy41Ny0wLjIyLDcuMDgtMS4wNywxMC4zNS0yLjUzYzIuMTktMS4wOSwzLjQ2LTIuNDIsMy40Ni0zLjgzICAgICAgVjQwLjc5TDMxLjc5LDQwLjgyeiIvPiYjeGE7CQkJPC9nPiYjeGE7CQkJPGcgaWQ9InNoYXBlNzg5Mi0zMyIgdHJhbnNmb3JtPSJ0cmFuc2xhdGUoMjEuMTUsLTAuMTg3NSkiPiYjeGE7CQkJCTx0aXRsZSBpZD0idGl0bGUxNDMzNjYiPnBhdGgzMTE4PC90aXRsZT4mI3hhOwkJCQk8cGF0aCBpZD0icGF0aDE0MzM2OCIgaW5rc2NhcGU6Y29ubmVjdG9yLWN1cnZhdHVyZT0iMCIgc3R5bGU9ImZpbGw6I0U1RTVFNTsiIGQ9Ik0xMC4zNSw0MS4wMXYzNy40NSAgICAgIEM3LjA4LDc5LjkyLDMuNTcsODAuNzcsMCw4MC45OVY0MS4xTDEwLjM1LDQxLjAxeiIvPiYjeGE7CQkJPC9nPiYjeGE7CQkJPGcgaWQ9InNoYXBlNzg5My0zNSI+JiN4YTsJCQkJPHRpdGxlIGlkPSJ0aXRsZTE0MzM3MSI+cGF0aDMxMjA8L3RpdGxlPiYjeGE7CQkJCTxwYXRoIGlkPSJwYXRoMTQzMzczIiBpbmtzY2FwZTpjb25uZWN0b3ItY3VydmF0dXJlPSIwIiBzdHlsZT0iZmlsbDpub25lOyIgZD0iTTAsNDEuMDl2MzMuMzVjMCwzLjQyLDcuNDYsNi4zNywxNy4yNSw2LjU1aDAuMzcgICAgICBjOS45Ny0wLjExLDE3LjYzLTMuMDksMTcuNjMtNi41NVY0MC43OUwwLDQxLjA5eiIvPiYjeGE7CQkJCSYjeGE7CQkJCQk8cGF0aCBpZD0icGF0aDE0MzM3NSIgaW5rc2NhcGU6Y29ubmVjdG9yLWN1cnZhdHVyZT0iMCIgc3R5bGU9ImZpbGw6bm9uZTtzdHJva2U6IzU1NkE4QTtzdHJva2Utd2lkdGg6MS41O3N0cm9rZS1taXRlcmxpbWl0OjM7IiBkPSIgICAgICBNMCw0MS4wOXYzMy4zNWMwLDMuNDIsNy40Niw2LjM3LDE3LjI1LDYuNTVoMC4zN2M5Ljk3LTAuMTEsMTcuNjMtMy4wOSwxNy42My02LjU1VjQwLjc5Ii8+JiN4YTsJCQk8L2c+JiN4YTsJCQk8ZyBpZD0ic2hhcGU3ODk0LTM4IiB0cmFuc2Zvcm09InRyYW5zbGF0ZSgwLjA0NSwtMzMuNDQyNSkiPiYjeGE7CQkJCTx0aXRsZSBpZD0idGl0bGUxNDMzNzgiPnBhdGgzMTIyPC90aXRsZT4mI3hhOwkJCQkmI3hhOwkJCQkJPHBhdGggaWQ9InBhdGgxNDMzODAiIGlua3NjYXBlOmNvbm5lY3Rvci1jdXJ2YXR1cmU9IjAiIHN0eWxlPSJmaWxsOiNCQUQ4MEE7c3Ryb2tlOiM1NTZBOEE7c3Ryb2tlLXdpZHRoOjEuNTtzdHJva2UtbWl0ZXJsaW1pdDozOyIgZD0iICAgICAgTTM1LjI1LDc0LjYyYzAsMy41Mi03Ljg5LDYuMzctMTcuNjMsNi4zN0M3Ljg5LDgwLjk5LDAsNzguMTQsMCw3NC42MmMwLTMuNTEsOC4xMy02LjM2LDE3Ljg2LTYuMzYgICAgICBDMjcuNTgsNjguMjYsMzUuMjUsNzEuMTEsMzUuMjUsNzQuNjJ6Ii8+JiN4YTsJCQk8L2c+JiN4YTsJCTwvZz4mI3hhOwk8L2c+JiN4YTs8L2c+JiN4YTs8L3N2Zz4=;shadow=0;dashed=1;dashPattern=1 1;fontSize=27;strokeWidth=3;fillColor=none;sketch=1;labelBackgroundColor=none;strokeColor=#457B9D;fontColor=#1D3557;" vertex="1" parent="1">
          <mxGeometry x="750" y="600" width="95.7" height="120" as="geometry" />
        </mxCell>
        <mxCell id="ALcrk5kfa60zqdkue-nD-4" value="" style="shape=image;verticalLabelPosition=bottom;verticalAlign=top;aspect=fixed;imageAspect=0;image=data:image/svg+xml,PHN2ZyB4bWxuczpjYz0iaHR0cDovL2NyZWF0aXZlY29tbW9ucy5vcmcvbnMjIiB4bWxuczpkYz0iaHR0cDovL3B1cmwub3JnL2RjL2VsZW1lbnRzLzEuMS8iIHhtbG5zOmlua3NjYXBlPSJodHRwOi8vd3d3Lmlua3NjYXBlLm9yZy9uYW1lc3BhY2VzL2lua3NjYXBlIiB4bWxuczpyZGY9Imh0dHA6Ly93d3cudzMub3JnLzE5OTkvMDIvMjItcmRmLXN5bnRheC1ucyMiIHhtbG5zOnNvZGlwb2RpPSJodHRwOi8vc29kaXBvZGkuc291cmNlZm9yZ2UubmV0L0RURC9zb2RpcG9kaS0wLmR0ZCIgeG1sbnM6c3ZnPSJodHRwOi8vd3d3LnczLm9yZy8yMDAwL3N2ZyIgeG1sbnM9Imh0dHA6Ly93d3cudzMub3JnLzIwMDAvc3ZnIiB4bWxuczp4bGluaz0iaHR0cDovL3d3dy53My5vcmcvMTk5OS94bGluayIgdmVyc2lvbj0iMS4xIiBpZD0ic3ZnNTMwNjEiIGlua3NjYXBlOnZlcnNpb249IjAuOTIuMyAoMjQwNTU0NiwgMjAxOC0wMy0xMSkiIHNvZGlwb2RpOmRvY25hbWU9InRhc2tfZmlsZV9vcmFuZ2Uuc3ZnIiB4PSIwcHgiIHk9IjBweCIgdmlld0JveD0iMCAwIDI3Ljc4IDM4LjI2IiBzdHlsZT0iZW5hYmxlLWJhY2tncm91bmQ6bmV3IDAgMCAyNy43OCAzOC4yNjsiIHhtbDpzcGFjZT0icHJlc2VydmUiPiYjeGE7PHNvZGlwb2RpOm5hbWVkdmlldyBib3JkZXJjb2xvcj0iIzY2NjY2NiIgYm9yZGVyb3BhY2l0eT0iMSIgZml0LW1hcmdpbi1ib3R0b209IjAiIGZpdC1tYXJnaW4tbGVmdD0iMCIgZml0LW1hcmdpbi1yaWdodD0iMCIgZml0LW1hcmdpbi10b3A9IjAiIGdyaWR0b2xlcmFuY2U9IjEwIiBndWlkZXRvbGVyYW5jZT0iMTAiIGlkPSJuYW1lZHZpZXc1MzA2MyIgaW5rc2NhcGU6Y3VycmVudC1sYXllcj0ic3ZnNTMwNjEiIGlua3NjYXBlOmN4PSIzNS43NDg2OTMiIGlua3NjYXBlOmN5PSIxOS4zNDIwNDEiIGlua3NjYXBlOnBhZ2VvcGFjaXR5PSIwIiBpbmtzY2FwZTpwYWdlc2hhZG93PSIyIiBpbmtzY2FwZTp3aW5kb3ctaGVpZ2h0PSIxMDE3IiBpbmtzY2FwZTp3aW5kb3ctbWF4aW1pemVkPSIxIiBpbmtzY2FwZTp3aW5kb3ctd2lkdGg9IjE5MjAiIGlua3NjYXBlOndpbmRvdy14PSItOCIgaW5rc2NhcGU6d2luZG93LXk9Ii04IiBpbmtzY2FwZTp6b29tPSIxMS40MzM0NDMiIG9iamVjdHRvbGVyYW5jZT0iMTAiIHBhZ2Vjb2xvcj0iI2ZmZmZmZiIgc2hvd2dyaWQ9ImZhbHNlIj4mI3hhOwk8L3NvZGlwb2RpOm5hbWVkdmlldz4mI3hhOzxnIGlkPSJzaGFwZTQ1NTAtMyIgdHJhbnNmb3JtPSJ0cmFuc2xhdGUoMC43NTAxOTYyMywtMi43MSkiPiYjeGE7CTx0aXRsZSBpZD0idGl0bGU1Mjk5MiI+cGF0aDIwNzU8L3RpdGxlPiYjeGE7CTxwYXRoIGlkPSJwYXRoNTI5OTQiIGlua3NjYXBlOmNvbm5lY3Rvci1jdXJ2YXR1cmU9IjAiIHN0eWxlPSJmaWxsOiNGRkZGRkY7IiBkPSJNMTQuOCwzLjQ2SDAuNTVDMC4yNCwzLjQ3LTAuMDEsMy43MywwLDQuMDQgICBjMCwwLDAsMCwwLDBsMCwzNS42Yy0wLjAxLDAuMzEsMC4yNCwwLjU3LDAuNTUsMC41OGMwLDAsMCwwLDAsMGwyNS4xOC0wLjAxYzAuMzEtMC4wMSwwLjU2LTAuMjcsMC41NS0wLjU4YzAsMCwwLDAsMCwwbDAtMjQuNjggICBMMTQuOCwzLjQ2eiIvPiYjeGE7PC9nPiYjeGE7PGcgaWQ9InNoYXBlNDU1MS01IiB0cmFuc2Zvcm09InRyYW5zbGF0ZSgxNS4wMzAxOTYsLTI4LjIxKSI+JiN4YTsJPHRpdGxlIGlkPSJ0aXRsZTUyOTk3Ij5wb2x5Z29uMjA3NzwvdGl0bGU+JiN4YTsJPHBhdGggaWQ9InBhdGg1Mjk5OSIgaW5rc2NhcGU6Y29ubmVjdG9yLWN1cnZhdHVyZT0iMCIgc3R5bGU9ImZpbGw6I0ZGQjkwMDsiIGQ9Ik0wLDI4LjVsMTIuMzEsMTEuNzFIMFYyOC41eiIvPiYjeGE7PC9nPiYjeGE7PGcgaWQ9InNoYXBlNDU1Mi03IiB0cmFuc2Zvcm09InRyYW5zbGF0ZSgwLjc1MDE5NjIzLC0yLjcxKSI+JiN4YTsJPHRpdGxlIGlkPSJ0aXRsZTUzMDAyIj5wYXRoMjA3OTwvdGl0bGU+JiN4YTsJJiN4YTsJCTxwYXRoIGlkPSJwYXRoNTMwMDQiIGlua3NjYXBlOmNvbm5lY3Rvci1jdXJ2YXR1cmU9IjAiIHN0eWxlPSJmaWxsOm5vbmU7c3Ryb2tlOiM1NTZBOEE7c3Ryb2tlLXdpZHRoOjEuNTtzdHJva2UtbWl0ZXJsaW1pdDozOyIgZD0iICAgTTE0LjgsMy40NkgwLjU1QzAuMjQsMy40Ny0wLjAxLDMuNzMsMCw0LjA0YzAsMCwwLDAsMCwwbDAsMzUuNmMtMC4wMSwwLjMxLDAuMjQsMC41NywwLjU1LDAuNThjMCwwLDAsMCwwLDBsMjUuMTgtMC4wMSAgIGMwLjMxLTAuMDEsMC41Ni0wLjI3LDAuNTUtMC41OGMwLDAsMCwwLDAsMGwwLTI0LjY4TDE0LjgsMy40NnoiLz4mI3hhOzwvZz4mI3hhOzxnIGlkPSJzaGFwZTQ1NTMtOSIgdHJhbnNmb3JtPSJ0cmFuc2xhdGUoMS41MzAxOTYyLC0zLjU0OTk5OSkiPiYjeGE7CTx0aXRsZSBpZD0idGl0bGU1MzAwNyI+cmVjdDIwODE8L3RpdGxlPiYjeGE7CTxyZWN0IGlkPSJyZWN0NTMwMDkiIHg9IjAiIHk9IjUuMDUiIHN0eWxlPSJmaWxsOiNFNUU1RTU7IiB3aWR0aD0iOC4yNSIgaGVpZ2h0PSIzNS4xNiIvPiYjeGE7PC9nPiYjeGE7PGcgaWQ9InNoYXBlNDU1NC0xMSIgdHJhbnNmb3JtPSJ0cmFuc2xhdGUoMTUuMDMwMTk2LC0yOC4yMSkiPiYjeGE7CTx0aXRsZSBpZD0idGl0bGU1MzAxMiI+cG9seWxpbmUyMDgzPC90aXRsZT4mI3hhOwk8cGF0aCBpZD0icGF0aDUzMDE0IiBpbmtzY2FwZTpjb25uZWN0b3ItY3VydmF0dXJlPSIwIiBzdHlsZT0iZmlsbDpub25lOyIgZD0iTTAsMjguNXYxMS43MWgxMkwwLDI4LjV6Ii8+JiN4YTsJJiN4YTsJCTxwYXRoIGlkPSJwYXRoNTMwMTYiIGlua3NjYXBlOmNvbm5lY3Rvci1jdXJ2YXR1cmU9IjAiIHN0eWxlPSJmaWxsOm5vbmU7c3Ryb2tlOiM1NTZBOEE7c3Ryb2tlLXdpZHRoOjEuNTtzdHJva2UtbWl0ZXJsaW1pdDozOyIgZD0iICAgTTAsMjguNXYxMS43MWgxMiIvPiYjeGE7PC9nPiYjeGE7PGcgaWQ9InNoYXBlNDU1NS0xNCIgdHJhbnNmb3JtPSJ0cmFuc2xhdGUoLTQuNDY5ODAzOCwtMi43MSkiPiYjeGE7CTx0aXRsZSBpZD0idGl0bGU1MzAxOSI+cmVjdDIwODU8L3RpdGxlPiYjeGE7CTxyZWN0IGlkPSJyZWN0NTMwMjEiIHg9IjAiIHk9IjIuNzEiIHN0eWxlPSJmaWxsOm5vbmU7IiB3aWR0aD0iMzcuNSIgaGVpZ2h0PSIzNy41Ii8+JiN4YTs8L2c+JiN4YTs8ZyBpZD0ic2hhcGU0NTU3LTE3IiB0cmFuc2Zvcm09InRyYW5zbGF0ZSg0LjExMDE5NjIsLTIyLjIxKSI+JiN4YTsJPHRpdGxlIGlkPSJ0aXRsZTUzMDI3Ij5wYXRoMjA4OTwvdGl0bGU+JiN4YTsJPHBhdGggaWQ9InBhdGg1MzAyOSIgaW5rc2NhcGU6Y29ubmVjdG9yLWN1cnZhdHVyZT0iMCIgc3R5bGU9ImZpbGw6IzU1NkE4QTsiIGQ9Ik0yLjE0LDM0LjMxdjUuOUgxLjIxdi00Ljc2ICAgYy0wLjE3LDAuMTItMC4zNSwwLjIzLTAuNTQsMC4zMUMwLjQ1LDM1Ljg1LDAuMjMsMzUuOTIsMCwzNS45OHYtMC43OWwwLjQ1LTAuMTZjMC4xNC0wLjA1LDAuMjktMC4xMiwwLjQzLTAuMTkgICBjMC4xNC0wLjA2LDAuMjgtMC4xNSwwLjQyLTAuMjNjMC4xNS0wLjA4LDAuMy0wLjE5LDAuNDUtMC4yOUwyLjE0LDM0LjMxeiIvPiYjeGE7PC9nPiYjeGE7PGcgaWQ9InNoYXBlNDU1OC0xOSIgdHJhbnNmb3JtPSJ0cmFuc2xhdGUoNC4xNzc2OTYyLC0xMy45NikiPiYjeGE7CTx0aXRsZSBpZD0idGl0bGU1MzAzMiI+cGF0aDIwOTE8L3RpdGxlPiYjeGE7CTxwYXRoIGlkPSJwYXRoNTMwMzQiIGlua3NjYXBlOmNvbm5lY3Rvci1jdXJ2YXR1cmU9IjAiIHN0eWxlPSJmaWxsOiM1NTZBOEE7IiBkPSJNMy42Miw0MC4yMUgwdi0wLjQ1YzAtMC4xNywwLjAyLTAuMzQsMC4wNy0wLjUxICAgYzAuMDUtMC4xNiwwLjEyLTAuMzEsMC4yMS0wLjQ1YzAuMDktMC4xNCwwLjE5LTAuMjgsMC4zLTAuNGMwLjExLTAuMTMsMC4yMy0wLjI1LDAuMzYtMC4zNmwwLjQxLTAuMzRsMC40LTAuMzMgICBjMC4xMy0wLjEsMC4yNC0wLjIxLDAuMzQtMC4zMWMwLjEtMC4wOSwwLjE4LTAuMiwwLjI2LTAuMzFjMC4wOC0wLjEsMC4xNC0wLjIyLDAuMTgtMC4zNGMwLjA0LTAuMTMsMC4wNi0wLjI2LDAuMDYtMC4zOSAgIGMwLTAuMTQtMC4wMi0wLjI3LTAuMDctMC40Yy0wLjA0LTAuMTEtMC4xMS0wLjIxLTAuMTktMC4yOGMtMC4wOS0wLjA4LTAuMTktMC4xNC0wLjMtMC4xN2MtMC4xMi0wLjA0LTAuMjUtMC4wNi0wLjM4LTAuMDUgICBjLTAuMjYsMC0wLjUxLDAuMDUtMC43NSwwLjE2Yy0wLjI2LDAuMTItMC41LDAuMjktMC43MSwwLjV2LTAuOWMwLjExLTAuMDksMC4yMy0wLjE3LDAuMzYtMC4yNGMwLjEyLTAuMDYsMC4yNS0wLjEyLDAuMzgtMC4xNiAgIGMwLjEzLTAuMDUsMC4yNi0wLjA4LDAuNC0wLjFjMC4xNS0wLjAxLDAuMzEtMC4wMSwwLjQ2LDBjMC4yNCwwLDAuNDgsMC4wNCwwLjcxLDAuMTFjMC4yLDAuMDYsMC4zOCwwLjE2LDAuNTQsMC4zICAgYzAuMTUsMC4xMywwLjI3LDAuMywwLjM1LDAuNDljMC4wOCwwLjIyLDAuMTIsMC40NSwwLjEyLDAuNjhjMCwwLjIxLTAuMDMsMC40My0wLjA5LDAuNjNjLTAuMDYsMC4xOS0wLjE0LDAuMzctMC4yNSwwLjUzICAgYy0wLjExLDAuMTctMC4yNCwwLjMyLTAuMzgsMC40NmMtMC4xNSwwLjE0LTAuMzIsMC4yOS0wLjUsMC40NWwtMC40NywwLjM2Yy0wLjE2LDAuMTItMC4yOSwwLjI0LTAuNDIsMC4zNiAgIGMtMC4xMSwwLjEtMC4yMSwwLjIyLTAuMywwLjM0Yy0wLjA3LDAuMS0wLjExLDAuMjItMC4xMSwwLjM0bDIuNjEsMC4wMUwzLjYyLDQwLjIxeiIvPiYjeGE7PC9nPiYjeGE7PGcgaWQ9InNoYXBlNDU1OS0yMSIgdHJhbnNmb3JtPSJ0cmFuc2xhdGUoNC4yNzUxOTYyLC01LjYwNSkiPiYjeGE7CTx0aXRsZSBpZD0idGl0bGU1MzAzNyI+cGF0aDIwOTM8L3RpdGxlPiYjeGE7CTxwYXRoIGlkPSJwYXRoNTMwMzkiIGlua3NjYXBlOmNvbm5lY3Rvci1jdXJ2YXR1cmU9IjAiIHN0eWxlPSJmaWxsOiM1NTZBOEE7IiBkPSJNMCwzOS45di0wLjg5YzAuMzYsMC4yOSwwLjgxLDAuNDUsMS4yNywwLjQ1ICAgYzAuMzMsMC4wMiwwLjY2LTAuMDcsMC45My0wLjI2YzAuMjMtMC4xNywwLjM2LTAuNDMsMC4zNS0wLjcxYy0wLjAxLTAuNjYtMC41MS0wLjk4LTEuNS0wLjk4SDAuNTl2LTAuNzVIMSAgIGMwLjg5LDAsMS4zNC0wLjMxLDEuMzQtMC45M3MtMC4zNS0wLjkxLTEuMDQtMC44NmMtMC40LDAtMC43OSwwLjE1LTEuMSwwLjQxdi0wLjgxYzAuNDMtMC4yMywwLjkxLTAuMzQsMS4zOS0wLjMzICAgYzAuNDQtMC4wMiwwLjg4LDAuMTIsMS4yMywwLjM5YzAuMywwLjIzLDAuNDgsMC42LDAuNDgsMC45OGMwLjA2LDAuNzItMC40NCwxLjM3LTEuMTYsMS41YzAuMzcsMC4wMiwwLjcyLDAuMTcsMC45OSwwLjQzICAgYzAuMjQsMC4yNSwwLjM3LDAuNTksMC4zNiwwLjk0YzAuMDEsMC40OS0wLjIxLDAuOTUtMC41OSwxLjI1Yy0wLjQ0LDAuMzQtMC45OSwwLjUxLTEuNTQsMC40OEMwLjg5LDQwLjIzLDAuNDIsNDAuMTIsMCwzOS45eiIvPiYjeGE7PC9nPiYjeGE7PHBhdGggaWQ9InBhdGg1MzA0NSIgaW5rc2NhcGU6Y29ubmVjdG9yLWN1cnZhdHVyZT0iMCIgc3R5bGU9ImZpbGw6bm9uZTtzdHJva2U6I0FCQUJBQjtzdHJva2Utd2lkdGg6MS41O3N0cm9rZS1taXRlcmxpbWl0OjM7IiBkPSIgIE0xMS4yOCwzMS41aDEyIi8+JiN4YTs8cGF0aCBpZD0icGF0aDUzMDUwIiBpbmtzY2FwZTpjb25uZWN0b3ItY3VydmF0dXJlPSIwIiBzdHlsZT0iZmlsbDpub25lO3N0cm9rZTojQUJBQkFCO3N0cm9rZS13aWR0aDoxLjU7c3Ryb2tlLW1pdGVybGltaXQ6MzsiIGQ9IiAgTTExLjI4LDI0aDEyIi8+JiN4YTs8cGF0aCBpZD0icGF0aDUzMDU1IiBpbmtzY2FwZTpjb25uZWN0b3ItY3VydmF0dXJlPSIwIiBzdHlsZT0iZmlsbDpub25lO3N0cm9rZTojQUJBQkFCO3N0cm9rZS13aWR0aDoxLjU7c3Ryb2tlLW1pdGVybGltaXQ6MzsiIGQ9IiAgTTExLjI4LDE2LjVoMTIiLz4mI3hhOzwvc3ZnPg==;shadow=0;fontSize=27;strokeWidth=4;fillColor=none;sketch=1;strokeColor=#457B9D;fontColor=#1D3557;" vertex="1" parent="1">
          <mxGeometry x="675.7900000000001" y="407" width="44.21" height="60" as="geometry" />
        </mxCell>
        <mxCell id="ALcrk5kfa60zqdkue-nD-5" value="" style="shape=image;verticalLabelPosition=bottom;verticalAlign=top;aspect=fixed;imageAspect=0;image=data:image/svg+xml,PHN2ZyB4bWxuczpjYz0iaHR0cDovL2NyZWF0aXZlY29tbW9ucy5vcmcvbnMjIiB4bWxuczpkYz0iaHR0cDovL3B1cmwub3JnL2RjL2VsZW1lbnRzLzEuMS8iIHhtbG5zOmlua3NjYXBlPSJodHRwOi8vd3d3Lmlua3NjYXBlLm9yZy9uYW1lc3BhY2VzL2lua3NjYXBlIiB4bWxuczpyZGY9Imh0dHA6Ly93d3cudzMub3JnLzE5OTkvMDIvMjItcmRmLXN5bnRheC1ucyMiIHhtbG5zOnNvZGlwb2RpPSJodHRwOi8vc29kaXBvZGkuc291cmNlZm9yZ2UubmV0L0RURC9zb2RpcG9kaS0wLmR0ZCIgeG1sbnM6c3ZnPSJodHRwOi8vd3d3LnczLm9yZy8yMDAwL3N2ZyIgeG1sbnM9Imh0dHA6Ly93d3cudzMub3JnLzIwMDAvc3ZnIiB4bWxuczp4bGluaz0iaHR0cDovL3d3dy53My5vcmcvMTk5OS94bGluayIgdmVyc2lvbj0iMS4xIiBpZD0ic3ZnNTMwNjEiIGlua3NjYXBlOnZlcnNpb249IjAuOTIuMyAoMjQwNTU0NiwgMjAxOC0wMy0xMSkiIHNvZGlwb2RpOmRvY25hbWU9InRhc2tfZmlsZV9vcmFuZ2Uuc3ZnIiB4PSIwcHgiIHk9IjBweCIgdmlld0JveD0iMCAwIDI3Ljc4IDM4LjI2IiBzdHlsZT0iZW5hYmxlLWJhY2tncm91bmQ6bmV3IDAgMCAyNy43OCAzOC4yNjsiIHhtbDpzcGFjZT0icHJlc2VydmUiPiYjeGE7PHNvZGlwb2RpOm5hbWVkdmlldyBib3JkZXJjb2xvcj0iIzY2NjY2NiIgYm9yZGVyb3BhY2l0eT0iMSIgZml0LW1hcmdpbi1ib3R0b209IjAiIGZpdC1tYXJnaW4tbGVmdD0iMCIgZml0LW1hcmdpbi1yaWdodD0iMCIgZml0LW1hcmdpbi10b3A9IjAiIGdyaWR0b2xlcmFuY2U9IjEwIiBndWlkZXRvbGVyYW5jZT0iMTAiIGlkPSJuYW1lZHZpZXc1MzA2MyIgaW5rc2NhcGU6Y3VycmVudC1sYXllcj0ic3ZnNTMwNjEiIGlua3NjYXBlOmN4PSIzNS43NDg2OTMiIGlua3NjYXBlOmN5PSIxOS4zNDIwNDEiIGlua3NjYXBlOnBhZ2VvcGFjaXR5PSIwIiBpbmtzY2FwZTpwYWdlc2hhZG93PSIyIiBpbmtzY2FwZTp3aW5kb3ctaGVpZ2h0PSIxMDE3IiBpbmtzY2FwZTp3aW5kb3ctbWF4aW1pemVkPSIxIiBpbmtzY2FwZTp3aW5kb3ctd2lkdGg9IjE5MjAiIGlua3NjYXBlOndpbmRvdy14PSItOCIgaW5rc2NhcGU6d2luZG93LXk9Ii04IiBpbmtzY2FwZTp6b29tPSIxMS40MzM0NDMiIG9iamVjdHRvbGVyYW5jZT0iMTAiIHBhZ2Vjb2xvcj0iI2ZmZmZmZiIgc2hvd2dyaWQ9ImZhbHNlIj4mI3hhOwk8L3NvZGlwb2RpOm5hbWVkdmlldz4mI3hhOzxnIGlkPSJzaGFwZTQ1NTAtMyIgdHJhbnNmb3JtPSJ0cmFuc2xhdGUoMC43NTAxOTYyMywtMi43MSkiPiYjeGE7CTx0aXRsZSBpZD0idGl0bGU1Mjk5MiI+cGF0aDIwNzU8L3RpdGxlPiYjeGE7CTxwYXRoIGlkPSJwYXRoNTI5OTQiIGlua3NjYXBlOmNvbm5lY3Rvci1jdXJ2YXR1cmU9IjAiIHN0eWxlPSJmaWxsOiNGRkZGRkY7IiBkPSJNMTQuOCwzLjQ2SDAuNTVDMC4yNCwzLjQ3LTAuMDEsMy43MywwLDQuMDQgICBjMCwwLDAsMCwwLDBsMCwzNS42Yy0wLjAxLDAuMzEsMC4yNCwwLjU3LDAuNTUsMC41OGMwLDAsMCwwLDAsMGwyNS4xOC0wLjAxYzAuMzEtMC4wMSwwLjU2LTAuMjcsMC41NS0wLjU4YzAsMCwwLDAsMCwwbDAtMjQuNjggICBMMTQuOCwzLjQ2eiIvPiYjeGE7PC9nPiYjeGE7PGcgaWQ9InNoYXBlNDU1MS01IiB0cmFuc2Zvcm09InRyYW5zbGF0ZSgxNS4wMzAxOTYsLTI4LjIxKSI+JiN4YTsJPHRpdGxlIGlkPSJ0aXRsZTUyOTk3Ij5wb2x5Z29uMjA3NzwvdGl0bGU+JiN4YTsJPHBhdGggaWQ9InBhdGg1Mjk5OSIgaW5rc2NhcGU6Y29ubmVjdG9yLWN1cnZhdHVyZT0iMCIgc3R5bGU9ImZpbGw6I0ZGQjkwMDsiIGQ9Ik0wLDI4LjVsMTIuMzEsMTEuNzFIMFYyOC41eiIvPiYjeGE7PC9nPiYjeGE7PGcgaWQ9InNoYXBlNDU1Mi03IiB0cmFuc2Zvcm09InRyYW5zbGF0ZSgwLjc1MDE5NjIzLC0yLjcxKSI+JiN4YTsJPHRpdGxlIGlkPSJ0aXRsZTUzMDAyIj5wYXRoMjA3OTwvdGl0bGU+JiN4YTsJJiN4YTsJCTxwYXRoIGlkPSJwYXRoNTMwMDQiIGlua3NjYXBlOmNvbm5lY3Rvci1jdXJ2YXR1cmU9IjAiIHN0eWxlPSJmaWxsOm5vbmU7c3Ryb2tlOiM1NTZBOEE7c3Ryb2tlLXdpZHRoOjEuNTtzdHJva2UtbWl0ZXJsaW1pdDozOyIgZD0iICAgTTE0LjgsMy40NkgwLjU1QzAuMjQsMy40Ny0wLjAxLDMuNzMsMCw0LjA0YzAsMCwwLDAsMCwwbDAsMzUuNmMtMC4wMSwwLjMxLDAuMjQsMC41NywwLjU1LDAuNThjMCwwLDAsMCwwLDBsMjUuMTgtMC4wMSAgIGMwLjMxLTAuMDEsMC41Ni0wLjI3LDAuNTUtMC41OGMwLDAsMCwwLDAsMGwwLTI0LjY4TDE0LjgsMy40NnoiLz4mI3hhOzwvZz4mI3hhOzxnIGlkPSJzaGFwZTQ1NTMtOSIgdHJhbnNmb3JtPSJ0cmFuc2xhdGUoMS41MzAxOTYyLC0zLjU0OTk5OSkiPiYjeGE7CTx0aXRsZSBpZD0idGl0bGU1MzAwNyI+cmVjdDIwODE8L3RpdGxlPiYjeGE7CTxyZWN0IGlkPSJyZWN0NTMwMDkiIHg9IjAiIHk9IjUuMDUiIHN0eWxlPSJmaWxsOiNFNUU1RTU7IiB3aWR0aD0iOC4yNSIgaGVpZ2h0PSIzNS4xNiIvPiYjeGE7PC9nPiYjeGE7PGcgaWQ9InNoYXBlNDU1NC0xMSIgdHJhbnNmb3JtPSJ0cmFuc2xhdGUoMTUuMDMwMTk2LC0yOC4yMSkiPiYjeGE7CTx0aXRsZSBpZD0idGl0bGU1MzAxMiI+cG9seWxpbmUyMDgzPC90aXRsZT4mI3hhOwk8cGF0aCBpZD0icGF0aDUzMDE0IiBpbmtzY2FwZTpjb25uZWN0b3ItY3VydmF0dXJlPSIwIiBzdHlsZT0iZmlsbDpub25lOyIgZD0iTTAsMjguNXYxMS43MWgxMkwwLDI4LjV6Ii8+JiN4YTsJJiN4YTsJCTxwYXRoIGlkPSJwYXRoNTMwMTYiIGlua3NjYXBlOmNvbm5lY3Rvci1jdXJ2YXR1cmU9IjAiIHN0eWxlPSJmaWxsOm5vbmU7c3Ryb2tlOiM1NTZBOEE7c3Ryb2tlLXdpZHRoOjEuNTtzdHJva2UtbWl0ZXJsaW1pdDozOyIgZD0iICAgTTAsMjguNXYxMS43MWgxMiIvPiYjeGE7PC9nPiYjeGE7PGcgaWQ9InNoYXBlNDU1NS0xNCIgdHJhbnNmb3JtPSJ0cmFuc2xhdGUoLTQuNDY5ODAzOCwtMi43MSkiPiYjeGE7CTx0aXRsZSBpZD0idGl0bGU1MzAxOSI+cmVjdDIwODU8L3RpdGxlPiYjeGE7CTxyZWN0IGlkPSJyZWN0NTMwMjEiIHg9IjAiIHk9IjIuNzEiIHN0eWxlPSJmaWxsOm5vbmU7IiB3aWR0aD0iMzcuNSIgaGVpZ2h0PSIzNy41Ii8+JiN4YTs8L2c+JiN4YTs8ZyBpZD0ic2hhcGU0NTU3LTE3IiB0cmFuc2Zvcm09InRyYW5zbGF0ZSg0LjExMDE5NjIsLTIyLjIxKSI+JiN4YTsJPHRpdGxlIGlkPSJ0aXRsZTUzMDI3Ij5wYXRoMjA4OTwvdGl0bGU+JiN4YTsJPHBhdGggaWQ9InBhdGg1MzAyOSIgaW5rc2NhcGU6Y29ubmVjdG9yLWN1cnZhdHVyZT0iMCIgc3R5bGU9ImZpbGw6IzU1NkE4QTsiIGQ9Ik0yLjE0LDM0LjMxdjUuOUgxLjIxdi00Ljc2ICAgYy0wLjE3LDAuMTItMC4zNSwwLjIzLTAuNTQsMC4zMUMwLjQ1LDM1Ljg1LDAuMjMsMzUuOTIsMCwzNS45OHYtMC43OWwwLjQ1LTAuMTZjMC4xNC0wLjA1LDAuMjktMC4xMiwwLjQzLTAuMTkgICBjMC4xNC0wLjA2LDAuMjgtMC4xNSwwLjQyLTAuMjNjMC4xNS0wLjA4LDAuMy0wLjE5LDAuNDUtMC4yOUwyLjE0LDM0LjMxeiIvPiYjeGE7PC9nPiYjeGE7PGcgaWQ9InNoYXBlNDU1OC0xOSIgdHJhbnNmb3JtPSJ0cmFuc2xhdGUoNC4xNzc2OTYyLC0xMy45NikiPiYjeGE7CTx0aXRsZSBpZD0idGl0bGU1MzAzMiI+cGF0aDIwOTE8L3RpdGxlPiYjeGE7CTxwYXRoIGlkPSJwYXRoNTMwMzQiIGlua3NjYXBlOmNvbm5lY3Rvci1jdXJ2YXR1cmU9IjAiIHN0eWxlPSJmaWxsOiM1NTZBOEE7IiBkPSJNMy42Miw0MC4yMUgwdi0wLjQ1YzAtMC4xNywwLjAyLTAuMzQsMC4wNy0wLjUxICAgYzAuMDUtMC4xNiwwLjEyLTAuMzEsMC4yMS0wLjQ1YzAuMDktMC4xNCwwLjE5LTAuMjgsMC4zLTAuNGMwLjExLTAuMTMsMC4yMy0wLjI1LDAuMzYtMC4zNmwwLjQxLTAuMzRsMC40LTAuMzMgICBjMC4xMy0wLjEsMC4yNC0wLjIxLDAuMzQtMC4zMWMwLjEtMC4wOSwwLjE4LTAuMiwwLjI2LTAuMzFjMC4wOC0wLjEsMC4xNC0wLjIyLDAuMTgtMC4zNGMwLjA0LTAuMTMsMC4wNi0wLjI2LDAuMDYtMC4zOSAgIGMwLTAuMTQtMC4wMi0wLjI3LTAuMDctMC40Yy0wLjA0LTAuMTEtMC4xMS0wLjIxLTAuMTktMC4yOGMtMC4wOS0wLjA4LTAuMTktMC4xNC0wLjMtMC4xN2MtMC4xMi0wLjA0LTAuMjUtMC4wNi0wLjM4LTAuMDUgICBjLTAuMjYsMC0wLjUxLDAuMDUtMC43NSwwLjE2Yy0wLjI2LDAuMTItMC41LDAuMjktMC43MSwwLjV2LTAuOWMwLjExLTAuMDksMC4yMy0wLjE3LDAuMzYtMC4yNGMwLjEyLTAuMDYsMC4yNS0wLjEyLDAuMzgtMC4xNiAgIGMwLjEzLTAuMDUsMC4yNi0wLjA4LDAuNC0wLjFjMC4xNS0wLjAxLDAuMzEtMC4wMSwwLjQ2LDBjMC4yNCwwLDAuNDgsMC4wNCwwLjcxLDAuMTFjMC4yLDAuMDYsMC4zOCwwLjE2LDAuNTQsMC4zICAgYzAuMTUsMC4xMywwLjI3LDAuMywwLjM1LDAuNDljMC4wOCwwLjIyLDAuMTIsMC40NSwwLjEyLDAuNjhjMCwwLjIxLTAuMDMsMC40My0wLjA5LDAuNjNjLTAuMDYsMC4xOS0wLjE0LDAuMzctMC4yNSwwLjUzICAgYy0wLjExLDAuMTctMC4yNCwwLjMyLTAuMzgsMC40NmMtMC4xNSwwLjE0LTAuMzIsMC4yOS0wLjUsMC40NWwtMC40NywwLjM2Yy0wLjE2LDAuMTItMC4yOSwwLjI0LTAuNDIsMC4zNiAgIGMtMC4xMSwwLjEtMC4yMSwwLjIyLTAuMywwLjM0Yy0wLjA3LDAuMS0wLjExLDAuMjItMC4xMSwwLjM0bDIuNjEsMC4wMUwzLjYyLDQwLjIxeiIvPiYjeGE7PC9nPiYjeGE7PGcgaWQ9InNoYXBlNDU1OS0yMSIgdHJhbnNmb3JtPSJ0cmFuc2xhdGUoNC4yNzUxOTYyLC01LjYwNSkiPiYjeGE7CTx0aXRsZSBpZD0idGl0bGU1MzAzNyI+cGF0aDIwOTM8L3RpdGxlPiYjeGE7CTxwYXRoIGlkPSJwYXRoNTMwMzkiIGlua3NjYXBlOmNvbm5lY3Rvci1jdXJ2YXR1cmU9IjAiIHN0eWxlPSJmaWxsOiM1NTZBOEE7IiBkPSJNMCwzOS45di0wLjg5YzAuMzYsMC4yOSwwLjgxLDAuNDUsMS4yNywwLjQ1ICAgYzAuMzMsMC4wMiwwLjY2LTAuMDcsMC45My0wLjI2YzAuMjMtMC4xNywwLjM2LTAuNDMsMC4zNS0wLjcxYy0wLjAxLTAuNjYtMC41MS0wLjk4LTEuNS0wLjk4SDAuNTl2LTAuNzVIMSAgIGMwLjg5LDAsMS4zNC0wLjMxLDEuMzQtMC45M3MtMC4zNS0wLjkxLTEuMDQtMC44NmMtMC40LDAtMC43OSwwLjE1LTEuMSwwLjQxdi0wLjgxYzAuNDMtMC4yMywwLjkxLTAuMzQsMS4zOS0wLjMzICAgYzAuNDQtMC4wMiwwLjg4LDAuMTIsMS4yMywwLjM5YzAuMywwLjIzLDAuNDgsMC42LDAuNDgsMC45OGMwLjA2LDAuNzItMC40NCwxLjM3LTEuMTYsMS41YzAuMzcsMC4wMiwwLjcyLDAuMTcsMC45OSwwLjQzICAgYzAuMjQsMC4yNSwwLjM3LDAuNTksMC4zNiwwLjk0YzAuMDEsMC40OS0wLjIxLDAuOTUtMC41OSwxLjI1Yy0wLjQ0LDAuMzQtMC45OSwwLjUxLTEuNTQsMC40OEMwLjg5LDQwLjIzLDAuNDIsNDAuMTIsMCwzOS45eiIvPiYjeGE7PC9nPiYjeGE7PHBhdGggaWQ9InBhdGg1MzA0NSIgaW5rc2NhcGU6Y29ubmVjdG9yLWN1cnZhdHVyZT0iMCIgc3R5bGU9ImZpbGw6bm9uZTtzdHJva2U6I0FCQUJBQjtzdHJva2Utd2lkdGg6MS41O3N0cm9rZS1taXRlcmxpbWl0OjM7IiBkPSIgIE0xMS4yOCwzMS41aDEyIi8+JiN4YTs8cGF0aCBpZD0icGF0aDUzMDUwIiBpbmtzY2FwZTpjb25uZWN0b3ItY3VydmF0dXJlPSIwIiBzdHlsZT0iZmlsbDpub25lO3N0cm9rZTojQUJBQkFCO3N0cm9rZS13aWR0aDoxLjU7c3Ryb2tlLW1pdGVybGltaXQ6MzsiIGQ9IiAgTTExLjI4LDI0aDEyIi8+JiN4YTs8cGF0aCBpZD0icGF0aDUzMDU1IiBpbmtzY2FwZTpjb25uZWN0b3ItY3VydmF0dXJlPSIwIiBzdHlsZT0iZmlsbDpub25lO3N0cm9rZTojQUJBQkFCO3N0cm9rZS13aWR0aDoxLjU7c3Ryb2tlLW1pdGVybGltaXQ6MzsiIGQ9IiAgTTExLjI4LDE2LjVoMTIiLz4mI3hhOzwvc3ZnPg==;shadow=0;fontSize=27;strokeWidth=4;fillColor=none;sketch=1;strokeColor=#457B9D;fontColor=#1D3557;" vertex="1" parent="1">
          <mxGeometry x="300" y="400" width="44.21" height="60" as="geometry" />
        </mxCell>
        <mxCell id="ALcrk5kfa60zqdkue-nD-6" value="A" style="text;html=1;strokeColor=none;fillColor=none;align=center;verticalAlign=middle;whiteSpace=wrap;rounded=0;shadow=0;fontSize=27;sketch=1;fontColor=#1D3557;" vertex="1" parent="1">
          <mxGeometry x="491" y="377" width="60" height="30" as="geometry" />
        </mxCell>
        <mxCell id="ALcrk5kfa60zqdkue-nD-7" value="B" style="text;html=1;strokeColor=none;fillColor=none;align=center;verticalAlign=middle;whiteSpace=wrap;rounded=0;shadow=0;fontSize=27;sketch=1;fontColor=#1D3557;" vertex="1" parent="1">
          <mxGeometry x="797.7" y="678" width="60" height="30" as="geometry" />
        </mxCell>
        <mxCell id="ALcrk5kfa60zqdkue-nD-8" value="" style="curved=1;endArrow=classic;html=1;rounded=0;fontSize=27;strokeWidth=2;exitX=0;exitY=0.5;exitDx=0;exitDy=0;sketch=1;labelBackgroundColor=#F1FAEE;strokeColor=#457B9D;fontColor=#1D3557;" edge="1" parent="1" source="ALcrk5kfa60zqdkue-nD-5">
          <mxGeometry width="50" height="50" relative="1" as="geometry">
            <mxPoint x="130" y="50" as="sourcePoint" />
            <mxPoint x="440" y="330" as="targetPoint" />
            <Array as="points">
              <mxPoint x="240" y="430" />
              <mxPoint x="250" y="360" />
            </Array>
          </mxGeometry>
        </mxCell>
        <mxCell id="ALcrk5kfa60zqdkue-nD-9" value="" style="shape=image;verticalLabelPosition=bottom;verticalAlign=top;aspect=fixed;imageAspect=0;image=data:image/svg+xml,PHN2ZyB4bWxuczpjYz0iaHR0cDovL2NyZWF0aXZlY29tbW9ucy5vcmcvbnMjIiB4bWxuczpkYz0iaHR0cDovL3B1cmwub3JnL2RjL2VsZW1lbnRzLzEuMS8iIHhtbG5zOmlua3NjYXBlPSJodHRwOi8vd3d3Lmlua3NjYXBlLm9yZy9uYW1lc3BhY2VzL2lua3NjYXBlIiB4bWxuczpyZGY9Imh0dHA6Ly93d3cudzMub3JnLzE5OTkvMDIvMjItcmRmLXN5bnRheC1ucyMiIHhtbG5zOnNvZGlwb2RpPSJodHRwOi8vc29kaXBvZGkuc291cmNlZm9yZ2UubmV0L0RURC9zb2RpcG9kaS0wLmR0ZCIgeG1sbnM6c3ZnPSJodHRwOi8vd3d3LnczLm9yZy8yMDAwL3N2ZyIgeG1sbnM9Imh0dHA6Ly93d3cudzMub3JnLzIwMDAvc3ZnIiB4bWxuczp4bGluaz0iaHR0cDovL3d3dy53My5vcmcvMTk5OS94bGluayIgdmVyc2lvbj0iMS4xIiBpZD0ic3ZnNTMwNjEiIGlua3NjYXBlOnZlcnNpb249IjAuOTIuMyAoMjQwNTU0NiwgMjAxOC0wMy0xMSkiIHNvZGlwb2RpOmRvY25hbWU9InRhc2tfZmlsZV9vcmFuZ2Uuc3ZnIiB4PSIwcHgiIHk9IjBweCIgdmlld0JveD0iMCAwIDI3Ljc4IDM4LjI2IiBzdHlsZT0iZW5hYmxlLWJhY2tncm91bmQ6bmV3IDAgMCAyNy43OCAzOC4yNjsiIHhtbDpzcGFjZT0icHJlc2VydmUiPiYjeGE7PHNvZGlwb2RpOm5hbWVkdmlldyBib3JkZXJjb2xvcj0iIzY2NjY2NiIgYm9yZGVyb3BhY2l0eT0iMSIgZml0LW1hcmdpbi1ib3R0b209IjAiIGZpdC1tYXJnaW4tbGVmdD0iMCIgZml0LW1hcmdpbi1yaWdodD0iMCIgZml0LW1hcmdpbi10b3A9IjAiIGdyaWR0b2xlcmFuY2U9IjEwIiBndWlkZXRvbGVyYW5jZT0iMTAiIGlkPSJuYW1lZHZpZXc1MzA2MyIgaW5rc2NhcGU6Y3VycmVudC1sYXllcj0ic3ZnNTMwNjEiIGlua3NjYXBlOmN4PSIzNS43NDg2OTMiIGlua3NjYXBlOmN5PSIxOS4zNDIwNDEiIGlua3NjYXBlOnBhZ2VvcGFjaXR5PSIwIiBpbmtzY2FwZTpwYWdlc2hhZG93PSIyIiBpbmtzY2FwZTp3aW5kb3ctaGVpZ2h0PSIxMDE3IiBpbmtzY2FwZTp3aW5kb3ctbWF4aW1pemVkPSIxIiBpbmtzY2FwZTp3aW5kb3ctd2lkdGg9IjE5MjAiIGlua3NjYXBlOndpbmRvdy14PSItOCIgaW5rc2NhcGU6d2luZG93LXk9Ii04IiBpbmtzY2FwZTp6b29tPSIxMS40MzM0NDMiIG9iamVjdHRvbGVyYW5jZT0iMTAiIHBhZ2Vjb2xvcj0iI2ZmZmZmZiIgc2hvd2dyaWQ9ImZhbHNlIj4mI3hhOwk8L3NvZGlwb2RpOm5hbWVkdmlldz4mI3hhOzxnIGlkPSJzaGFwZTQ1NTAtMyIgdHJhbnNmb3JtPSJ0cmFuc2xhdGUoMC43NTAxOTYyMywtMi43MSkiPiYjeGE7CTx0aXRsZSBpZD0idGl0bGU1Mjk5MiI+cGF0aDIwNzU8L3RpdGxlPiYjeGE7CTxwYXRoIGlkPSJwYXRoNTI5OTQiIGlua3NjYXBlOmNvbm5lY3Rvci1jdXJ2YXR1cmU9IjAiIHN0eWxlPSJmaWxsOiNGRkZGRkY7IiBkPSJNMTQuOCwzLjQ2SDAuNTVDMC4yNCwzLjQ3LTAuMDEsMy43MywwLDQuMDQgICBjMCwwLDAsMCwwLDBsMCwzNS42Yy0wLjAxLDAuMzEsMC4yNCwwLjU3LDAuNTUsMC41OGMwLDAsMCwwLDAsMGwyNS4xOC0wLjAxYzAuMzEtMC4wMSwwLjU2LTAuMjcsMC41NS0wLjU4YzAsMCwwLDAsMCwwbDAtMjQuNjggICBMMTQuOCwzLjQ2eiIvPiYjeGE7PC9nPiYjeGE7PGcgaWQ9InNoYXBlNDU1MS01IiB0cmFuc2Zvcm09InRyYW5zbGF0ZSgxNS4wMzAxOTYsLTI4LjIxKSI+JiN4YTsJPHRpdGxlIGlkPSJ0aXRsZTUyOTk3Ij5wb2x5Z29uMjA3NzwvdGl0bGU+JiN4YTsJPHBhdGggaWQ9InBhdGg1Mjk5OSIgaW5rc2NhcGU6Y29ubmVjdG9yLWN1cnZhdHVyZT0iMCIgc3R5bGU9ImZpbGw6I0ZGQjkwMDsiIGQ9Ik0wLDI4LjVsMTIuMzEsMTEuNzFIMFYyOC41eiIvPiYjeGE7PC9nPiYjeGE7PGcgaWQ9InNoYXBlNDU1Mi03IiB0cmFuc2Zvcm09InRyYW5zbGF0ZSgwLjc1MDE5NjIzLC0yLjcxKSI+JiN4YTsJPHRpdGxlIGlkPSJ0aXRsZTUzMDAyIj5wYXRoMjA3OTwvdGl0bGU+JiN4YTsJJiN4YTsJCTxwYXRoIGlkPSJwYXRoNTMwMDQiIGlua3NjYXBlOmNvbm5lY3Rvci1jdXJ2YXR1cmU9IjAiIHN0eWxlPSJmaWxsOm5vbmU7c3Ryb2tlOiM1NTZBOEE7c3Ryb2tlLXdpZHRoOjEuNTtzdHJva2UtbWl0ZXJsaW1pdDozOyIgZD0iICAgTTE0LjgsMy40NkgwLjU1QzAuMjQsMy40Ny0wLjAxLDMuNzMsMCw0LjA0YzAsMCwwLDAsMCwwbDAsMzUuNmMtMC4wMSwwLjMxLDAuMjQsMC41NywwLjU1LDAuNThjMCwwLDAsMCwwLDBsMjUuMTgtMC4wMSAgIGMwLjMxLTAuMDEsMC41Ni0wLjI3LDAuNTUtMC41OGMwLDAsMCwwLDAsMGwwLTI0LjY4TDE0LjgsMy40NnoiLz4mI3hhOzwvZz4mI3hhOzxnIGlkPSJzaGFwZTQ1NTMtOSIgdHJhbnNmb3JtPSJ0cmFuc2xhdGUoMS41MzAxOTYyLC0zLjU0OTk5OSkiPiYjeGE7CTx0aXRsZSBpZD0idGl0bGU1MzAwNyI+cmVjdDIwODE8L3RpdGxlPiYjeGE7CTxyZWN0IGlkPSJyZWN0NTMwMDkiIHg9IjAiIHk9IjUuMDUiIHN0eWxlPSJmaWxsOiNFNUU1RTU7IiB3aWR0aD0iOC4yNSIgaGVpZ2h0PSIzNS4xNiIvPiYjeGE7PC9nPiYjeGE7PGcgaWQ9InNoYXBlNDU1NC0xMSIgdHJhbnNmb3JtPSJ0cmFuc2xhdGUoMTUuMDMwMTk2LC0yOC4yMSkiPiYjeGE7CTx0aXRsZSBpZD0idGl0bGU1MzAxMiI+cG9seWxpbmUyMDgzPC90aXRsZT4mI3hhOwk8cGF0aCBpZD0icGF0aDUzMDE0IiBpbmtzY2FwZTpjb25uZWN0b3ItY3VydmF0dXJlPSIwIiBzdHlsZT0iZmlsbDpub25lOyIgZD0iTTAsMjguNXYxMS43MWgxMkwwLDI4LjV6Ii8+JiN4YTsJJiN4YTsJCTxwYXRoIGlkPSJwYXRoNTMwMTYiIGlua3NjYXBlOmNvbm5lY3Rvci1jdXJ2YXR1cmU9IjAiIHN0eWxlPSJmaWxsOm5vbmU7c3Ryb2tlOiM1NTZBOEE7c3Ryb2tlLXdpZHRoOjEuNTtzdHJva2UtbWl0ZXJsaW1pdDozOyIgZD0iICAgTTAsMjguNXYxMS43MWgxMiIvPiYjeGE7PC9nPiYjeGE7PGcgaWQ9InNoYXBlNDU1NS0xNCIgdHJhbnNmb3JtPSJ0cmFuc2xhdGUoLTQuNDY5ODAzOCwtMi43MSkiPiYjeGE7CTx0aXRsZSBpZD0idGl0bGU1MzAxOSI+cmVjdDIwODU8L3RpdGxlPiYjeGE7CTxyZWN0IGlkPSJyZWN0NTMwMjEiIHg9IjAiIHk9IjIuNzEiIHN0eWxlPSJmaWxsOm5vbmU7IiB3aWR0aD0iMzcuNSIgaGVpZ2h0PSIzNy41Ii8+JiN4YTs8L2c+JiN4YTs8ZyBpZD0ic2hhcGU0NTU3LTE3IiB0cmFuc2Zvcm09InRyYW5zbGF0ZSg0LjExMDE5NjIsLTIyLjIxKSI+JiN4YTsJPHRpdGxlIGlkPSJ0aXRsZTUzMDI3Ij5wYXRoMjA4OTwvdGl0bGU+JiN4YTsJPHBhdGggaWQ9InBhdGg1MzAyOSIgaW5rc2NhcGU6Y29ubmVjdG9yLWN1cnZhdHVyZT0iMCIgc3R5bGU9ImZpbGw6IzU1NkE4QTsiIGQ9Ik0yLjE0LDM0LjMxdjUuOUgxLjIxdi00Ljc2ICAgYy0wLjE3LDAuMTItMC4zNSwwLjIzLTAuNTQsMC4zMUMwLjQ1LDM1Ljg1LDAuMjMsMzUuOTIsMCwzNS45OHYtMC43OWwwLjQ1LTAuMTZjMC4xNC0wLjA1LDAuMjktMC4xMiwwLjQzLTAuMTkgICBjMC4xNC0wLjA2LDAuMjgtMC4xNSwwLjQyLTAuMjNjMC4xNS0wLjA4LDAuMy0wLjE5LDAuNDUtMC4yOUwyLjE0LDM0LjMxeiIvPiYjeGE7PC9nPiYjeGE7PGcgaWQ9InNoYXBlNDU1OC0xOSIgdHJhbnNmb3JtPSJ0cmFuc2xhdGUoNC4xNzc2OTYyLC0xMy45NikiPiYjeGE7CTx0aXRsZSBpZD0idGl0bGU1MzAzMiI+cGF0aDIwOTE8L3RpdGxlPiYjeGE7CTxwYXRoIGlkPSJwYXRoNTMwMzQiIGlua3NjYXBlOmNvbm5lY3Rvci1jdXJ2YXR1cmU9IjAiIHN0eWxlPSJmaWxsOiM1NTZBOEE7IiBkPSJNMy42Miw0MC4yMUgwdi0wLjQ1YzAtMC4xNywwLjAyLTAuMzQsMC4wNy0wLjUxICAgYzAuMDUtMC4xNiwwLjEyLTAuMzEsMC4yMS0wLjQ1YzAuMDktMC4xNCwwLjE5LTAuMjgsMC4zLTAuNGMwLjExLTAuMTMsMC4yMy0wLjI1LDAuMzYtMC4zNmwwLjQxLTAuMzRsMC40LTAuMzMgICBjMC4xMy0wLjEsMC4yNC0wLjIxLDAuMzQtMC4zMWMwLjEtMC4wOSwwLjE4LTAuMiwwLjI2LTAuMzFjMC4wOC0wLjEsMC4xNC0wLjIyLDAuMTgtMC4zNGMwLjA0LTAuMTMsMC4wNi0wLjI2LDAuMDYtMC4zOSAgIGMwLTAuMTQtMC4wMi0wLjI3LTAuMDctMC40Yy0wLjA0LTAuMTEtMC4xMS0wLjIxLTAuMTktMC4yOGMtMC4wOS0wLjA4LTAuMTktMC4xNC0wLjMtMC4xN2MtMC4xMi0wLjA0LTAuMjUtMC4wNi0wLjM4LTAuMDUgICBjLTAuMjYsMC0wLjUxLDAuMDUtMC43NSwwLjE2Yy0wLjI2LDAuMTItMC41LDAuMjktMC43MSwwLjV2LTAuOWMwLjExLTAuMDksMC4yMy0wLjE3LDAuMzYtMC4yNGMwLjEyLTAuMDYsMC4yNS0wLjEyLDAuMzgtMC4xNiAgIGMwLjEzLTAuMDUsMC4yNi0wLjA4LDAuNC0wLjFjMC4xNS0wLjAxLDAuMzEtMC4wMSwwLjQ2LDBjMC4yNCwwLDAuNDgsMC4wNCwwLjcxLDAuMTFjMC4yLDAuMDYsMC4zOCwwLjE2LDAuNTQsMC4zICAgYzAuMTUsMC4xMywwLjI3LDAuMywwLjM1LDAuNDljMC4wOCwwLjIyLDAuMTIsMC40NSwwLjEyLDAuNjhjMCwwLjIxLTAuMDMsMC40My0wLjA5LDAuNjNjLTAuMDYsMC4xOS0wLjE0LDAuMzctMC4yNSwwLjUzICAgYy0wLjExLDAuMTctMC4yNCwwLjMyLTAuMzgsMC40NmMtMC4xNSwwLjE0LTAuMzIsMC4yOS0wLjUsMC40NWwtMC40NywwLjM2Yy0wLjE2LDAuMTItMC4yOSwwLjI0LTAuNDIsMC4zNiAgIGMtMC4xMSwwLjEtMC4yMSwwLjIyLTAuMywwLjM0Yy0wLjA3LDAuMS0wLjExLDAuMjItMC4xMSwwLjM0bDIuNjEsMC4wMUwzLjYyLDQwLjIxeiIvPiYjeGE7PC9nPiYjeGE7PGcgaWQ9InNoYXBlNDU1OS0yMSIgdHJhbnNmb3JtPSJ0cmFuc2xhdGUoNC4yNzUxOTYyLC01LjYwNSkiPiYjeGE7CTx0aXRsZSBpZD0idGl0bGU1MzAzNyI+cGF0aDIwOTM8L3RpdGxlPiYjeGE7CTxwYXRoIGlkPSJwYXRoNTMwMzkiIGlua3NjYXBlOmNvbm5lY3Rvci1jdXJ2YXR1cmU9IjAiIHN0eWxlPSJmaWxsOiM1NTZBOEE7IiBkPSJNMCwzOS45di0wLjg5YzAuMzYsMC4yOSwwLjgxLDAuNDUsMS4yNywwLjQ1ICAgYzAuMzMsMC4wMiwwLjY2LTAuMDcsMC45My0wLjI2YzAuMjMtMC4xNywwLjM2LTAuNDMsMC4zNS0wLjcxYy0wLjAxLTAuNjYtMC41MS0wLjk4LTEuNS0wLjk4SDAuNTl2LTAuNzVIMSAgIGMwLjg5LDAsMS4zNC0wLjMxLDEuMzQtMC45M3MtMC4zNS0wLjkxLTEuMDQtMC44NmMtMC40LDAtMC43OSwwLjE1LTEuMSwwLjQxdi0wLjgxYzAuNDMtMC4yMywwLjkxLTAuMzQsMS4zOS0wLjMzICAgYzAuNDQtMC4wMiwwLjg4LDAuMTIsMS4yMywwLjM5YzAuMywwLjIzLDAuNDgsMC42LDAuNDgsMC45OGMwLjA2LDAuNzItMC40NCwxLjM3LTEuMTYsMS41YzAuMzcsMC4wMiwwLjcyLDAuMTcsMC45OSwwLjQzICAgYzAuMjQsMC4yNSwwLjM3LDAuNTksMC4zNiwwLjk0YzAuMDEsMC40OS0wLjIxLDAuOTUtMC41OSwxLjI1Yy0wLjQ0LDAuMzQtMC45OSwwLjUxLTEuNTQsMC40OEMwLjg5LDQwLjIzLDAuNDIsNDAuMTIsMCwzOS45eiIvPiYjeGE7PC9nPiYjeGE7PHBhdGggaWQ9InBhdGg1MzA0NSIgaW5rc2NhcGU6Y29ubmVjdG9yLWN1cnZhdHVyZT0iMCIgc3R5bGU9ImZpbGw6bm9uZTtzdHJva2U6I0FCQUJBQjtzdHJva2Utd2lkdGg6MS41O3N0cm9rZS1taXRlcmxpbWl0OjM7IiBkPSIgIE0xMS4yOCwzMS41aDEyIi8+JiN4YTs8cGF0aCBpZD0icGF0aDUzMDUwIiBpbmtzY2FwZTpjb25uZWN0b3ItY3VydmF0dXJlPSIwIiBzdHlsZT0iZmlsbDpub25lO3N0cm9rZTojQUJBQkFCO3N0cm9rZS13aWR0aDoxLjU7c3Ryb2tlLW1pdGVybGltaXQ6MzsiIGQ9IiAgTTExLjI4LDI0aDEyIi8+JiN4YTs8cGF0aCBpZD0icGF0aDUzMDU1IiBpbmtzY2FwZTpjb25uZWN0b3ItY3VydmF0dXJlPSIwIiBzdHlsZT0iZmlsbDpub25lO3N0cm9rZTojQUJBQkFCO3N0cm9rZS13aWR0aDoxLjU7c3Ryb2tlLW1pdGVybGltaXQ6MzsiIGQ9IiAgTTExLjI4LDE2LjVoMTIiLz4mI3hhOzwvc3ZnPg==;shadow=0;fontSize=27;strokeWidth=4;fillColor=none;sketch=1;strokeColor=#457B9D;fontColor=#1D3557;" vertex="1" parent="1">
          <mxGeometry x="720" y="740" width="44.21" height="60" as="geometry" />
        </mxCell>
        <mxCell id="ALcrk5kfa60zqdkue-nD-10" value="" style="shape=image;verticalLabelPosition=bottom;verticalAlign=top;aspect=fixed;imageAspect=0;image=data:image/svg+xml,PHN2ZyB4bWxuczpjYz0iaHR0cDovL2NyZWF0aXZlY29tbW9ucy5vcmcvbnMjIiB4bWxuczpkYz0iaHR0cDovL3B1cmwub3JnL2RjL2VsZW1lbnRzLzEuMS8iIHhtbG5zOmlua3NjYXBlPSJodHRwOi8vd3d3Lmlua3NjYXBlLm9yZy9uYW1lc3BhY2VzL2lua3NjYXBlIiB4bWxuczpyZGY9Imh0dHA6Ly93d3cudzMub3JnLzE5OTkvMDIvMjItcmRmLXN5bnRheC1ucyMiIHhtbG5zOnNvZGlwb2RpPSJodHRwOi8vc29kaXBvZGkuc291cmNlZm9yZ2UubmV0L0RURC9zb2RpcG9kaS0wLmR0ZCIgeG1sbnM6c3ZnPSJodHRwOi8vd3d3LnczLm9yZy8yMDAwL3N2ZyIgeG1sbnM9Imh0dHA6Ly93d3cudzMub3JnLzIwMDAvc3ZnIiB4bWxuczp4bGluaz0iaHR0cDovL3d3dy53My5vcmcvMTk5OS94bGluayIgdmVyc2lvbj0iMS4xIiBpZD0ic3ZnNTMwNjEiIGlua3NjYXBlOnZlcnNpb249IjAuOTIuMyAoMjQwNTU0NiwgMjAxOC0wMy0xMSkiIHNvZGlwb2RpOmRvY25hbWU9InRhc2tfZmlsZV9vcmFuZ2Uuc3ZnIiB4PSIwcHgiIHk9IjBweCIgdmlld0JveD0iMCAwIDI3Ljc4IDM4LjI2IiBzdHlsZT0iZW5hYmxlLWJhY2tncm91bmQ6bmV3IDAgMCAyNy43OCAzOC4yNjsiIHhtbDpzcGFjZT0icHJlc2VydmUiPiYjeGE7PHNvZGlwb2RpOm5hbWVkdmlldyBib3JkZXJjb2xvcj0iIzY2NjY2NiIgYm9yZGVyb3BhY2l0eT0iMSIgZml0LW1hcmdpbi1ib3R0b209IjAiIGZpdC1tYXJnaW4tbGVmdD0iMCIgZml0LW1hcmdpbi1yaWdodD0iMCIgZml0LW1hcmdpbi10b3A9IjAiIGdyaWR0b2xlcmFuY2U9IjEwIiBndWlkZXRvbGVyYW5jZT0iMTAiIGlkPSJuYW1lZHZpZXc1MzA2MyIgaW5rc2NhcGU6Y3VycmVudC1sYXllcj0ic3ZnNTMwNjEiIGlua3NjYXBlOmN4PSIzNS43NDg2OTMiIGlua3NjYXBlOmN5PSIxOS4zNDIwNDEiIGlua3NjYXBlOnBhZ2VvcGFjaXR5PSIwIiBpbmtzY2FwZTpwYWdlc2hhZG93PSIyIiBpbmtzY2FwZTp3aW5kb3ctaGVpZ2h0PSIxMDE3IiBpbmtzY2FwZTp3aW5kb3ctbWF4aW1pemVkPSIxIiBpbmtzY2FwZTp3aW5kb3ctd2lkdGg9IjE5MjAiIGlua3NjYXBlOndpbmRvdy14PSItOCIgaW5rc2NhcGU6d2luZG93LXk9Ii04IiBpbmtzY2FwZTp6b29tPSIxMS40MzM0NDMiIG9iamVjdHRvbGVyYW5jZT0iMTAiIHBhZ2Vjb2xvcj0iI2ZmZmZmZiIgc2hvd2dyaWQ9ImZhbHNlIj4mI3hhOwk8L3NvZGlwb2RpOm5hbWVkdmlldz4mI3hhOzxnIGlkPSJzaGFwZTQ1NTAtMyIgdHJhbnNmb3JtPSJ0cmFuc2xhdGUoMC43NTAxOTYyMywtMi43MSkiPiYjeGE7CTx0aXRsZSBpZD0idGl0bGU1Mjk5MiI+cGF0aDIwNzU8L3RpdGxlPiYjeGE7CTxwYXRoIGlkPSJwYXRoNTI5OTQiIGlua3NjYXBlOmNvbm5lY3Rvci1jdXJ2YXR1cmU9IjAiIHN0eWxlPSJmaWxsOiNGRkZGRkY7IiBkPSJNMTQuOCwzLjQ2SDAuNTVDMC4yNCwzLjQ3LTAuMDEsMy43MywwLDQuMDQgICBjMCwwLDAsMCwwLDBsMCwzNS42Yy0wLjAxLDAuMzEsMC4yNCwwLjU3LDAuNTUsMC41OGMwLDAsMCwwLDAsMGwyNS4xOC0wLjAxYzAuMzEtMC4wMSwwLjU2LTAuMjcsMC41NS0wLjU4YzAsMCwwLDAsMCwwbDAtMjQuNjggICBMMTQuOCwzLjQ2eiIvPiYjeGE7PC9nPiYjeGE7PGcgaWQ9InNoYXBlNDU1MS01IiB0cmFuc2Zvcm09InRyYW5zbGF0ZSgxNS4wMzAxOTYsLTI4LjIxKSI+JiN4YTsJPHRpdGxlIGlkPSJ0aXRsZTUyOTk3Ij5wb2x5Z29uMjA3NzwvdGl0bGU+JiN4YTsJPHBhdGggaWQ9InBhdGg1Mjk5OSIgaW5rc2NhcGU6Y29ubmVjdG9yLWN1cnZhdHVyZT0iMCIgc3R5bGU9ImZpbGw6I0ZGQjkwMDsiIGQ9Ik0wLDI4LjVsMTIuMzEsMTEuNzFIMFYyOC41eiIvPiYjeGE7PC9nPiYjeGE7PGcgaWQ9InNoYXBlNDU1Mi03IiB0cmFuc2Zvcm09InRyYW5zbGF0ZSgwLjc1MDE5NjIzLC0yLjcxKSI+JiN4YTsJPHRpdGxlIGlkPSJ0aXRsZTUzMDAyIj5wYXRoMjA3OTwvdGl0bGU+JiN4YTsJJiN4YTsJCTxwYXRoIGlkPSJwYXRoNTMwMDQiIGlua3NjYXBlOmNvbm5lY3Rvci1jdXJ2YXR1cmU9IjAiIHN0eWxlPSJmaWxsOm5vbmU7c3Ryb2tlOiM1NTZBOEE7c3Ryb2tlLXdpZHRoOjEuNTtzdHJva2UtbWl0ZXJsaW1pdDozOyIgZD0iICAgTTE0LjgsMy40NkgwLjU1QzAuMjQsMy40Ny0wLjAxLDMuNzMsMCw0LjA0YzAsMCwwLDAsMCwwbDAsMzUuNmMtMC4wMSwwLjMxLDAuMjQsMC41NywwLjU1LDAuNThjMCwwLDAsMCwwLDBsMjUuMTgtMC4wMSAgIGMwLjMxLTAuMDEsMC41Ni0wLjI3LDAuNTUtMC41OGMwLDAsMCwwLDAsMGwwLTI0LjY4TDE0LjgsMy40NnoiLz4mI3hhOzwvZz4mI3hhOzxnIGlkPSJzaGFwZTQ1NTMtOSIgdHJhbnNmb3JtPSJ0cmFuc2xhdGUoMS41MzAxOTYyLC0zLjU0OTk5OSkiPiYjeGE7CTx0aXRsZSBpZD0idGl0bGU1MzAwNyI+cmVjdDIwODE8L3RpdGxlPiYjeGE7CTxyZWN0IGlkPSJyZWN0NTMwMDkiIHg9IjAiIHk9IjUuMDUiIHN0eWxlPSJmaWxsOiNFNUU1RTU7IiB3aWR0aD0iOC4yNSIgaGVpZ2h0PSIzNS4xNiIvPiYjeGE7PC9nPiYjeGE7PGcgaWQ9InNoYXBlNDU1NC0xMSIgdHJhbnNmb3JtPSJ0cmFuc2xhdGUoMTUuMDMwMTk2LC0yOC4yMSkiPiYjeGE7CTx0aXRsZSBpZD0idGl0bGU1MzAxMiI+cG9seWxpbmUyMDgzPC90aXRsZT4mI3hhOwk8cGF0aCBpZD0icGF0aDUzMDE0IiBpbmtzY2FwZTpjb25uZWN0b3ItY3VydmF0dXJlPSIwIiBzdHlsZT0iZmlsbDpub25lOyIgZD0iTTAsMjguNXYxMS43MWgxMkwwLDI4LjV6Ii8+JiN4YTsJJiN4YTsJCTxwYXRoIGlkPSJwYXRoNTMwMTYiIGlua3NjYXBlOmNvbm5lY3Rvci1jdXJ2YXR1cmU9IjAiIHN0eWxlPSJmaWxsOm5vbmU7c3Ryb2tlOiM1NTZBOEE7c3Ryb2tlLXdpZHRoOjEuNTtzdHJva2UtbWl0ZXJsaW1pdDozOyIgZD0iICAgTTAsMjguNXYxMS43MWgxMiIvPiYjeGE7PC9nPiYjeGE7PGcgaWQ9InNoYXBlNDU1NS0xNCIgdHJhbnNmb3JtPSJ0cmFuc2xhdGUoLTQuNDY5ODAzOCwtMi43MSkiPiYjeGE7CTx0aXRsZSBpZD0idGl0bGU1MzAxOSI+cmVjdDIwODU8L3RpdGxlPiYjeGE7CTxyZWN0IGlkPSJyZWN0NTMwMjEiIHg9IjAiIHk9IjIuNzEiIHN0eWxlPSJmaWxsOm5vbmU7IiB3aWR0aD0iMzcuNSIgaGVpZ2h0PSIzNy41Ii8+JiN4YTs8L2c+JiN4YTs8ZyBpZD0ic2hhcGU0NTU3LTE3IiB0cmFuc2Zvcm09InRyYW5zbGF0ZSg0LjExMDE5NjIsLTIyLjIxKSI+JiN4YTsJPHRpdGxlIGlkPSJ0aXRsZTUzMDI3Ij5wYXRoMjA4OTwvdGl0bGU+JiN4YTsJPHBhdGggaWQ9InBhdGg1MzAyOSIgaW5rc2NhcGU6Y29ubmVjdG9yLWN1cnZhdHVyZT0iMCIgc3R5bGU9ImZpbGw6IzU1NkE4QTsiIGQ9Ik0yLjE0LDM0LjMxdjUuOUgxLjIxdi00Ljc2ICAgYy0wLjE3LDAuMTItMC4zNSwwLjIzLTAuNTQsMC4zMUMwLjQ1LDM1Ljg1LDAuMjMsMzUuOTIsMCwzNS45OHYtMC43OWwwLjQ1LTAuMTZjMC4xNC0wLjA1LDAuMjktMC4xMiwwLjQzLTAuMTkgICBjMC4xNC0wLjA2LDAuMjgtMC4xNSwwLjQyLTAuMjNjMC4xNS0wLjA4LDAuMy0wLjE5LDAuNDUtMC4yOUwyLjE0LDM0LjMxeiIvPiYjeGE7PC9nPiYjeGE7PGcgaWQ9InNoYXBlNDU1OC0xOSIgdHJhbnNmb3JtPSJ0cmFuc2xhdGUoNC4xNzc2OTYyLC0xMy45NikiPiYjeGE7CTx0aXRsZSBpZD0idGl0bGU1MzAzMiI+cGF0aDIwOTE8L3RpdGxlPiYjeGE7CTxwYXRoIGlkPSJwYXRoNTMwMzQiIGlua3NjYXBlOmNvbm5lY3Rvci1jdXJ2YXR1cmU9IjAiIHN0eWxlPSJmaWxsOiM1NTZBOEE7IiBkPSJNMy42Miw0MC4yMUgwdi0wLjQ1YzAtMC4xNywwLjAyLTAuMzQsMC4wNy0wLjUxICAgYzAuMDUtMC4xNiwwLjEyLTAuMzEsMC4yMS0wLjQ1YzAuMDktMC4xNCwwLjE5LTAuMjgsMC4zLTAuNGMwLjExLTAuMTMsMC4yMy0wLjI1LDAuMzYtMC4zNmwwLjQxLTAuMzRsMC40LTAuMzMgICBjMC4xMy0wLjEsMC4yNC0wLjIxLDAuMzQtMC4zMWMwLjEtMC4wOSwwLjE4LTAuMiwwLjI2LTAuMzFjMC4wOC0wLjEsMC4xNC0wLjIyLDAuMTgtMC4zNGMwLjA0LTAuMTMsMC4wNi0wLjI2LDAuMDYtMC4zOSAgIGMwLTAuMTQtMC4wMi0wLjI3LTAuMDctMC40Yy0wLjA0LTAuMTEtMC4xMS0wLjIxLTAuMTktMC4yOGMtMC4wOS0wLjA4LTAuMTktMC4xNC0wLjMtMC4xN2MtMC4xMi0wLjA0LTAuMjUtMC4wNi0wLjM4LTAuMDUgICBjLTAuMjYsMC0wLjUxLDAuMDUtMC43NSwwLjE2Yy0wLjI2LDAuMTItMC41LDAuMjktMC43MSwwLjV2LTAuOWMwLjExLTAuMDksMC4yMy0wLjE3LDAuMzYtMC4yNGMwLjEyLTAuMDYsMC4yNS0wLjEyLDAuMzgtMC4xNiAgIGMwLjEzLTAuMDUsMC4yNi0wLjA4LDAuNC0wLjFjMC4xNS0wLjAxLDAuMzEtMC4wMSwwLjQ2LDBjMC4yNCwwLDAuNDgsMC4wNCwwLjcxLDAuMTFjMC4yLDAuMDYsMC4zOCwwLjE2LDAuNTQsMC4zICAgYzAuMTUsMC4xMywwLjI3LDAuMywwLjM1LDAuNDljMC4wOCwwLjIyLDAuMTIsMC40NSwwLjEyLDAuNjhjMCwwLjIxLTAuMDMsMC40My0wLjA5LDAuNjNjLTAuMDYsMC4xOS0wLjE0LDAuMzctMC4yNSwwLjUzICAgYy0wLjExLDAuMTctMC4yNCwwLjMyLTAuMzgsMC40NmMtMC4xNSwwLjE0LTAuMzIsMC4yOS0wLjUsMC40NWwtMC40NywwLjM2Yy0wLjE2LDAuMTItMC4yOSwwLjI0LTAuNDIsMC4zNiAgIGMtMC4xMSwwLjEtMC4yMSwwLjIyLTAuMywwLjM0Yy0wLjA3LDAuMS0wLjExLDAuMjItMC4xMSwwLjM0bDIuNjEsMC4wMUwzLjYyLDQwLjIxeiIvPiYjeGE7PC9nPiYjeGE7PGcgaWQ9InNoYXBlNDU1OS0yMSIgdHJhbnNmb3JtPSJ0cmFuc2xhdGUoNC4yNzUxOTYyLC01LjYwNSkiPiYjeGE7CTx0aXRsZSBpZD0idGl0bGU1MzAzNyI+cGF0aDIwOTM8L3RpdGxlPiYjeGE7CTxwYXRoIGlkPSJwYXRoNTMwMzkiIGlua3NjYXBlOmNvbm5lY3Rvci1jdXJ2YXR1cmU9IjAiIHN0eWxlPSJmaWxsOiM1NTZBOEE7IiBkPSJNMCwzOS45di0wLjg5YzAuMzYsMC4yOSwwLjgxLDAuNDUsMS4yNywwLjQ1ICAgYzAuMzMsMC4wMiwwLjY2LTAuMDcsMC45My0wLjI2YzAuMjMtMC4xNywwLjM2LTAuNDMsMC4zNS0wLjcxYy0wLjAxLTAuNjYtMC41MS0wLjk4LTEuNS0wLjk4SDAuNTl2LTAuNzVIMSAgIGMwLjg5LDAsMS4zNC0wLjMxLDEuMzQtMC45M3MtMC4zNS0wLjkxLTEuMDQtMC44NmMtMC40LDAtMC43OSwwLjE1LTEuMSwwLjQxdi0wLjgxYzAuNDMtMC4yMywwLjkxLTAuMzQsMS4zOS0wLjMzICAgYzAuNDQtMC4wMiwwLjg4LDAuMTIsMS4yMywwLjM5YzAuMywwLjIzLDAuNDgsMC42LDAuNDgsMC45OGMwLjA2LDAuNzItMC40NCwxLjM3LTEuMTYsMS41YzAuMzcsMC4wMiwwLjcyLDAuMTcsMC45OSwwLjQzICAgYzAuMjQsMC4yNSwwLjM3LDAuNTksMC4zNiwwLjk0YzAuMDEsMC40OS0wLjIxLDAuOTUtMC41OSwxLjI1Yy0wLjQ0LDAuMzQtMC45OSwwLjUxLTEuNTQsMC40OEMwLjg5LDQwLjIzLDAuNDIsNDAuMTIsMCwzOS45eiIvPiYjeGE7PC9nPiYjeGE7PHBhdGggaWQ9InBhdGg1MzA0NSIgaW5rc2NhcGU6Y29ubmVjdG9yLWN1cnZhdHVyZT0iMCIgc3R5bGU9ImZpbGw6bm9uZTtzdHJva2U6I0FCQUJBQjtzdHJva2Utd2lkdGg6MS41O3N0cm9rZS1taXRlcmxpbWl0OjM7IiBkPSIgIE0xMS4yOCwzMS41aDEyIi8+JiN4YTs8cGF0aCBpZD0icGF0aDUzMDUwIiBpbmtzY2FwZTpjb25uZWN0b3ItY3VydmF0dXJlPSIwIiBzdHlsZT0iZmlsbDpub25lO3N0cm9rZTojQUJBQkFCO3N0cm9rZS13aWR0aDoxLjU7c3Ryb2tlLW1pdGVybGltaXQ6MzsiIGQ9IiAgTTExLjI4LDI0aDEyIi8+JiN4YTs8cGF0aCBpZD0icGF0aDUzMDU1IiBpbmtzY2FwZTpjb25uZWN0b3ItY3VydmF0dXJlPSIwIiBzdHlsZT0iZmlsbDpub25lO3N0cm9rZTojQUJBQkFCO3N0cm9rZS13aWR0aDoxLjU7c3Ryb2tlLW1pdGVybGltaXQ6MzsiIGQ9IiAgTTExLjI4LDE2LjVoMTIiLz4mI3hhOzwvc3ZnPg==;shadow=0;fontSize=27;strokeWidth=4;fillColor=none;sketch=1;strokeColor=#457B9D;fontColor=#1D3557;" vertex="1" parent="1">
          <mxGeometry x="650" y="831" width="44.21" height="60" as="geometry" />
        </mxCell>
        <mxCell id="ALcrk5kfa60zqdkue-nD-12" value="" style="curved=1;endArrow=classic;html=1;rounded=0;fontSize=27;strokeWidth=2;exitX=0;exitY=0.5;exitDx=0;exitDy=0;sketch=1;labelBackgroundColor=#F1FAEE;strokeColor=#457B9D;fontColor=#1D3557;entryX=0.627;entryY=0;entryDx=0;entryDy=0;entryPerimeter=0;" edge="1" parent="1" source="ALcrk5kfa60zqdkue-nD-9">
          <mxGeometry width="50" height="50" relative="1" as="geometry">
            <mxPoint x="541" y="509" as="sourcePoint" />
            <mxPoint x="490.00389999999993" y="846" as="targetPoint" />
            <Array as="points">
              <mxPoint x="720" y="730" />
              <mxPoint x="600" y="730" />
            </Array>
          </mxGeometry>
        </mxCell>
        <mxCell id="ALcrk5kfa60zqdkue-nD-13" value="" style="curved=1;endArrow=classic;html=1;rounded=0;fontSize=27;strokeWidth=2;sketch=1;labelBackgroundColor=#F1FAEE;strokeColor=#457B9D;fontColor=#1D3557;exitX=0.5;exitY=0;exitDx=0;exitDy=0;" edge="1" parent="1" source="ALcrk5kfa60zqdkue-nD-10">
          <mxGeometry width="50" height="50" relative="1" as="geometry">
            <mxPoint x="460" y="880" as="sourcePoint" />
            <mxPoint x="525.7" y="893.8208516886932" as="targetPoint" />
            <Array as="points">
              <mxPoint x="660" y="790" />
              <mxPoint x="580" y="880" />
            </Array>
          </mxGeometry>
        </mxCell>
        <mxCell id="ALcrk5kfa60zqdkue-nD-14" value="" style="curved=1;endArrow=classic;html=1;rounded=0;strokeWidth=2;strokeColor=#457B9D;sketch=1;exitX=1;exitY=0.25;exitDx=0;exitDy=0;" edge="1" parent="1" target="ALcrk5kfa60zqdkue-nD-3" source="ALcrk5kfa60zqdkue-nD-4">
          <mxGeometry width="50" height="50" relative="1" as="geometry">
            <mxPoint x="740" y="420" as="sourcePoint" />
            <mxPoint x="790" y="370" as="targetPoint" />
            <Array as="points">
              <mxPoint x="790" y="420" />
              <mxPoint x="830" y="510" />
            </Array>
          </mxGeometry>
        </mxCell>
        <mxCell id="ALcrk5kfa60zqdkue-nD-15" value="" style="shape=image;verticalLabelPosition=bottom;labelBackgroundColor=#ffffff;verticalAlign=top;aspect=fixed;imageAspect=0;image=data:image/svg+xml,PHN2ZyB4bWxuczpjYz0iaHR0cDovL2NyZWF0aXZlY29tbW9ucy5vcmcvbnMjIiB4bWxuczpkYz0iaHR0cDovL3B1cmwub3JnL2RjL2VsZW1lbnRzLzEuMS8iIHhtbG5zOmlua3NjYXBlPSJodHRwOi8vd3d3Lmlua3NjYXBlLm9yZy9uYW1lc3BhY2VzL2lua3NjYXBlIiB4bWxuczpyZGY9Imh0dHA6Ly93d3cudzMub3JnLzE5OTkvMDIvMjItcmRmLXN5bnRheC1ucyMiIHhtbG5zOnNvZGlwb2RpPSJodHRwOi8vc29kaXBvZGkuc291cmNlZm9yZ2UubmV0L0RURC9zb2RpcG9kaS0wLmR0ZCIgeG1sbnM6c3ZnPSJodHRwOi8vd3d3LnczLm9yZy8yMDAwL3N2ZyIgeG1sbnM9Imh0dHA6Ly93d3cudzMub3JnLzIwMDAvc3ZnIiB4bWxuczp4bGluaz0iaHR0cDovL3d3dy53My5vcmcvMTk5OS94bGluayIgdmVyc2lvbj0iMS4xIiBpZD0ic3ZnMTQzMzg3IiBpbmtzY2FwZTp2ZXJzaW9uPSIwLjkyLjMgKDI0MDU1NDYsIDIwMTgtMDMtMTEpIiBzb2RpcG9kaTpkb2NuYW1lPSJkYXRhYmFzZV9zZXJ2ZXIuc3ZnIiB4PSIwcHgiIHk9IjBweCIgdmlld0JveD0iMCAwIDYzLjA0IDc5LjQ5IiBzdHlsZT0iZW5hYmxlLWJhY2tncm91bmQ6bmV3IDAgMCA2My4wNCA3OS40OTsiIHhtbDpzcGFjZT0icHJlc2VydmUiPiYjeGE7PHNvZGlwb2RpOm5hbWVkdmlldyBib3JkZXJjb2xvcj0iIzY2NjY2NiIgYm9yZGVyb3BhY2l0eT0iMSIgZml0LW1hcmdpbi1ib3R0b209IjAiIGZpdC1tYXJnaW4tbGVmdD0iMCIgZml0LW1hcmdpbi1yaWdodD0iMCIgZml0LW1hcmdpbi10b3A9IjAiIGdyaWR0b2xlcmFuY2U9IjEwIiBndWlkZXRvbGVyYW5jZT0iMTAiIGlkPSJuYW1lZHZpZXcxNDMzODkiIGlua3NjYXBlOmN1cnJlbnQtbGF5ZXI9InN2ZzE0MzM4NyIgaW5rc2NhcGU6Y3g9IjQyLjAyOTk4NiIgaW5rc2NhcGU6Y3k9IjUyLjk5MTY0OCIgaW5rc2NhcGU6cGFnZW9wYWNpdHk9IjAiIGlua3NjYXBlOnBhZ2VzaGFkb3c9IjIiIGlua3NjYXBlOndpbmRvdy1oZWlnaHQ9IjEwMTciIGlua3NjYXBlOndpbmRvdy1tYXhpbWl6ZWQ9IjEiIGlua3NjYXBlOndpbmRvdy13aWR0aD0iMTkyMCIgaW5rc2NhcGU6d2luZG93LXg9Ii04IiBpbmtzY2FwZTp3aW5kb3cteT0iLTgiIGlua3NjYXBlOnpvb209IjguMDI4NDkxNSIgb2JqZWN0dG9sZXJhbmNlPSIxMCIgcGFnZWNvbG9yPSIjZmZmZmZmIiBzaG93Z3JpZD0iZmFsc2UiPiYjeGE7CTwvc29kaXBvZGk6bmFtZWR2aWV3PiYjeGE7PGcgaWQ9ImcxNDMzODUiIHRyYW5zZm9ybT0idHJhbnNsYXRlKC0wLjc1LC0wLjc1MDE2NjY1KSI+JiN4YTsJPHRpdGxlIGlkPSJ0aXRsZTE0MzI4NCI+UGFnZS0xPC90aXRsZT4mI3hhOwk8ZyBpZD0iZ3JvdXA3ODc0LTEiIHRyYW5zZm9ybT0idHJhbnNsYXRlKDEuNSwtMS41KSI+JiN4YTsJCTx0aXRsZSBpZD0idGl0bGUxNDMyODYiPkRhdGFiYXNlIFNlcnZlcjwvdGl0bGU+JiN4YTsJCTxnIGlkPSJncm91cDc4NzUtMiIgdHJhbnNmb3JtPSJ0cmFuc2xhdGUoMCwtOS43NDI1KSI+JiN4YTsJCQk8dGl0bGUgaWQ9InRpdGxlMTQzMjg4Ij5nMzExNC4yMTA4NDwvdGl0bGU+JiN4YTsJCQk8ZyBpZD0ic2hhcGU3ODc2LTMiPiYjeGE7CQkJCTx0aXRsZSBpZD0idGl0bGUxNDMyOTAiPnJlY3QzMDg2PC90aXRsZT4mI3hhOwkJCQkmI3hhOwkJCQkJPHJlY3QgaWQ9InJlY3QxNDMyOTIiIHk9IjEyLjc0IiBzdHlsZT0iZmlsbDojRkZGRkZGO3N0cm9rZTojNTU2QThBO3N0cm9rZS13aWR0aDoxLjU7c3Ryb2tlLW1pdGVybGltaXQ6MzsiIHdpZHRoPSIzOS43NSIgaGVpZ2h0PSI2OC4yNSIvPiYjeGE7CQkJPC9nPiYjeGE7CQkJPGcgaWQ9Imdyb3VwNzg3Ny01IiB0cmFuc2Zvcm09InRyYW5zbGF0ZSgxLjUsLTAuNzUpIj4mI3hhOwkJCQk8dGl0bGUgaWQ9InRpdGxlMTQzMjk1Ij5nMzEwNjwvdGl0bGU+JiN4YTsJCQkJPGcgaWQ9InNoYXBlNzg3OC02IiB0cmFuc2Zvcm09InRyYW5zbGF0ZSgxOCkiPiYjeGE7CQkJCQk8dGl0bGUgaWQ9InRpdGxlMTQzMjk3Ij5yZWN0MzA4ODwvdGl0bGU+JiN4YTsJCQkJCTxyZWN0IGlkPSJyZWN0MTQzMjk5IiB5PSIxNC4yNCIgc3R5bGU9ImZpbGw6I0U1RTVFNTsiIHdpZHRoPSIxOS41IiBoZWlnaHQ9IjY2Ljc1Ii8+JiN4YTsJCQkJPC9nPiYjeGE7CQkJCTxnIGlkPSJzaGFwZTc4NzktOCIgdHJhbnNmb3JtPSJ0cmFuc2xhdGUoMCwtNDgpIj4mI3hhOwkJCQkJPHRpdGxlIGlkPSJ0aXRsZTE0MzMwMiI+cmVjdDMwOTA8L3RpdGxlPiYjeGE7CQkJCQk8cmVjdCBpZD0icmVjdDE0MzMwNCIgeT0iNzguNzQiIHN0eWxlPSJmaWxsOiMyQkM3RjQ7IiB3aWR0aD0iMTgiIGhlaWdodD0iMi4yNSIvPiYjeGE7CQkJCTwvZz4mI3hhOwkJCQk8ZyBpZD0ic2hhcGU3ODgwLTEwIiB0cmFuc2Zvcm09InRyYW5zbGF0ZSgwLC01OC41KSI+JiN4YTsJCQkJCTx0aXRsZSBpZD0idGl0bGUxNDMzMDciPnBvbHlnb24zMDkyPC90aXRsZT4mI3hhOwkJCQkJPHJlY3QgaWQ9InJlY3QxNDMzMDkiIHk9Ijc4Ljc0IiBzdHlsZT0iZmlsbDpub25lOyIgd2lkdGg9IjI3IiBoZWlnaHQ9IjIuMjUiLz4mI3hhOwkJCQk8L2c+JiN4YTsJCQkJPGcgaWQ9InNoYXBlNzg4MS0xMiIgdHJhbnNmb3JtPSJ0cmFuc2xhdGUoMCwtNTguNSkiPiYjeGE7CQkJCQk8dGl0bGUgaWQ9InRpdGxlMTQzMzEyIj5wb2x5bGluZTMwOTQ8L3RpdGxlPiYjeGE7CQkJCQk8cmVjdCBpZD0icmVjdDE0MzMxNCIgeT0iNzguNzQiIHN0eWxlPSJmaWxsOm5vbmU7IiB3aWR0aD0iMjciIGhlaWdodD0iMi4yNSIvPiYjeGE7CQkJCTwvZz4mI3hhOwkJCQk8ZyBpZD0ic2hhcGU3ODgyLTE0IiB0cmFuc2Zvcm09InRyYW5zbGF0ZSgwLC01My4yNSkiPiYjeGE7CQkJCQk8dGl0bGUgaWQ9InRpdGxlMTQzMzE3Ij5yZWN0MzA5NjwvdGl0bGU+JiN4YTsJCQkJCTxyZWN0IGlkPSJyZWN0MTQzMzE5IiB5PSI3OC43NCIgc3R5bGU9ImZpbGw6IzJCQzdGNDsiIHdpZHRoPSIxOCIgaGVpZ2h0PSIyLjI1Ii8+JiN4YTsJCQkJPC9nPiYjeGE7CQkJCTxnIGlkPSJzaGFwZTc4ODMtMTYiIHRyYW5zZm9ybT0idHJhbnNsYXRlKDAsLTU4LjUpIj4mI3hhOwkJCQkJPHRpdGxlIGlkPSJ0aXRsZTE0MzMyMiI+cmVjdDMwOTg8L3RpdGxlPiYjeGE7CQkJCQk8cmVjdCBpZD0icmVjdDE0MzMyNCIgeT0iNzguNzQiIHN0eWxlPSJmaWxsOiMyQkM3RjQ7IiB3aWR0aD0iMTgiIGhlaWdodD0iMi4yNSIvPiYjeGE7CQkJCTwvZz4mI3hhOwkJCQk8ZyBpZD0ic2hhcGU3ODg0LTE4IiB0cmFuc2Zvcm09InRyYW5zbGF0ZSgxOCwtNDgpIj4mI3hhOwkJCQkJPHRpdGxlIGlkPSJ0aXRsZTE0MzMyNyI+cmVjdDMxMDA8L3RpdGxlPiYjeGE7CQkJCQk8cmVjdCBpZD0icmVjdDE0MzMyOSIgeT0iNzguNzQiIHN0eWxlPSJmaWxsOiM1NTZBOEE7IiB3aWR0aD0iMTkuNSIgaGVpZ2h0PSIyLjI1Ii8+JiN4YTsJCQkJPC9nPiYjeGE7CQkJCTxnIGlkPSJzaGFwZTc4ODUtMjAiIHRyYW5zZm9ybT0idHJhbnNsYXRlKDE4LC01My4yNSkiPiYjeGE7CQkJCQk8dGl0bGUgaWQ9InRpdGxlMTQzMzMyIj5yZWN0MzEwMjwvdGl0bGU+JiN4YTsJCQkJCTxyZWN0IGlkPSJyZWN0MTQzMzM0IiB5PSI3OC43NCIgc3R5bGU9ImZpbGw6IzU1NkE4QTsiIHdpZHRoPSIxOS41IiBoZWlnaHQ9IjIuMjUiLz4mI3hhOwkJCQk8L2c+JiN4YTsJCQkJPGcgaWQ9InNoYXBlNzg4Ni0yMiIgdHJhbnNmb3JtPSJ0cmFuc2xhdGUoMTgsLTU4LjUpIj4mI3hhOwkJCQkJPHRpdGxlIGlkPSJ0aXRsZTE0MzMzNyI+cmVjdDMxMDQ8L3RpdGxlPiYjeGE7CQkJCQk8cmVjdCBpZD0icmVjdDE0MzMzOSIgeT0iNzguNzQiIHN0eWxlPSJmaWxsOiM1NTZBOEE7IiB3aWR0aD0iMTkuNSIgaGVpZ2h0PSIyLjI1Ii8+JiN4YTsJCQkJPC9nPiYjeGE7CQkJPC9nPiYjeGE7CQkJPGcgaWQ9InNoYXBlNzg4Ny0yNCIgdHJhbnNmb3JtPSJ0cmFuc2xhdGUoMC43NSwtNTkuMjUpIj4mI3hhOwkJCQk8dGl0bGUgaWQ9InRpdGxlMTQzMzQzIj5yZWN0MzEwODwvdGl0bGU+JiN4YTsJCQkJPHJlY3QgaWQ9InJlY3QxNDMzNDUiIHk9Ijc4Ljc0IiBzdHlsZT0iZmlsbDojNTU2QThBOyIgd2lkdGg9IjIuMjUiIGhlaWdodD0iMi4yNSIvPiYjeGE7CQkJPC9nPiYjeGE7CQkJPGcgaWQ9InNoYXBlNzg4OC0yNiIgdHJhbnNmb3JtPSJ0cmFuc2xhdGUoMC43NSwtNTQpIj4mI3hhOwkJCQk8dGl0bGUgaWQ9InRpdGxlMTQzMzQ4Ij5yZWN0MzExMDwvdGl0bGU+JiN4YTsJCQkJPHJlY3QgaWQ9InJlY3QxNDMzNTAiIHk9Ijc4Ljc0IiBzdHlsZT0iZmlsbDojNTU2QThBOyIgd2lkdGg9IjIuMjUiIGhlaWdodD0iMi4yNSIvPiYjeGE7CQkJPC9nPiYjeGE7CQkJPGcgaWQ9InNoYXBlNzg4OS0yOCIgdHJhbnNmb3JtPSJ0cmFuc2xhdGUoMC43NSwtNDguNzUpIj4mI3hhOwkJCQk8dGl0bGUgaWQ9InRpdGxlMTQzMzUzIj5yZWN0MzExMjwvdGl0bGU+JiN4YTsJCQkJPHJlY3QgaWQ9InJlY3QxNDMzNTUiIHk9Ijc4Ljc0IiBzdHlsZT0iZmlsbDojNTU2QThBOyIgd2lkdGg9IjIuMjUiIGhlaWdodD0iMi4yNSIvPiYjeGE7CQkJPC9nPiYjeGE7CQk8L2c+JiN4YTsJCTxnIGlkPSJncm91cDc4OTAtMzAiIHRyYW5zZm9ybT0idHJhbnNsYXRlKDI2LjI1KSI+JiN4YTsJCQk8dGl0bGUgaWQ9InRpdGxlMTQzMzU5Ij5nMzEyNC4yMTA5OTwvdGl0bGU+JiN4YTsJCQk8ZyBpZD0ic2hhcGU3ODkxLTMxIj4mI3hhOwkJCQk8dGl0bGUgaWQ9InRpdGxlMTQzMzYxIj5wYXRoMzExNjwvdGl0bGU+JiN4YTsJCQkJPHBhdGggaWQ9InBhdGgxNDMzNjMiIGlua3NjYXBlOmNvbm5lY3Rvci1jdXJ2YXR1cmU9IjAiIHN0eWxlPSJmaWxsOiNGRkZGRkY7IiBkPSJNMzEuNzksNDAuODJsLTEwLjM1LDAuMDlMMCw0MS4wOXYzMy4zNSAgICAgIGMwLDMuNDIsNy41LDYuMzcsMTcuMjUsNi41NWgwLjM3YzEuMzIsMCwyLjYtMC4wNywzLjgyLTAuMTljMy41Ny0wLjIyLDcuMDgtMS4wNywxMC4zNS0yLjUzYzIuMTktMS4wOSwzLjQ2LTIuNDIsMy40Ni0zLjgzICAgICAgVjQwLjc5TDMxLjc5LDQwLjgyeiIvPiYjeGE7CQkJPC9nPiYjeGE7CQkJPGcgaWQ9InNoYXBlNzg5Mi0zMyIgdHJhbnNmb3JtPSJ0cmFuc2xhdGUoMjEuMTUsLTAuMTg3NSkiPiYjeGE7CQkJCTx0aXRsZSBpZD0idGl0bGUxNDMzNjYiPnBhdGgzMTE4PC90aXRsZT4mI3hhOwkJCQk8cGF0aCBpZD0icGF0aDE0MzM2OCIgaW5rc2NhcGU6Y29ubmVjdG9yLWN1cnZhdHVyZT0iMCIgc3R5bGU9ImZpbGw6I0U1RTVFNTsiIGQ9Ik0xMC4zNSw0MS4wMXYzNy40NSAgICAgIEM3LjA4LDc5LjkyLDMuNTcsODAuNzcsMCw4MC45OVY0MS4xTDEwLjM1LDQxLjAxeiIvPiYjeGE7CQkJPC9nPiYjeGE7CQkJPGcgaWQ9InNoYXBlNzg5My0zNSI+JiN4YTsJCQkJPHRpdGxlIGlkPSJ0aXRsZTE0MzM3MSI+cGF0aDMxMjA8L3RpdGxlPiYjeGE7CQkJCTxwYXRoIGlkPSJwYXRoMTQzMzczIiBpbmtzY2FwZTpjb25uZWN0b3ItY3VydmF0dXJlPSIwIiBzdHlsZT0iZmlsbDpub25lOyIgZD0iTTAsNDEuMDl2MzMuMzVjMCwzLjQyLDcuNDYsNi4zNywxNy4yNSw2LjU1aDAuMzcgICAgICBjOS45Ny0wLjExLDE3LjYzLTMuMDksMTcuNjMtNi41NVY0MC43OUwwLDQxLjA5eiIvPiYjeGE7CQkJCSYjeGE7CQkJCQk8cGF0aCBpZD0icGF0aDE0MzM3NSIgaW5rc2NhcGU6Y29ubmVjdG9yLWN1cnZhdHVyZT0iMCIgc3R5bGU9ImZpbGw6bm9uZTtzdHJva2U6IzU1NkE4QTtzdHJva2Utd2lkdGg6MS41O3N0cm9rZS1taXRlcmxpbWl0OjM7IiBkPSIgICAgICBNMCw0MS4wOXYzMy4zNWMwLDMuNDIsNy40Niw2LjM3LDE3LjI1LDYuNTVoMC4zN2M5Ljk3LTAuMTEsMTcuNjMtMy4wOSwxNy42My02LjU1VjQwLjc5Ii8+JiN4YTsJCQk8L2c+JiN4YTsJCQk8ZyBpZD0ic2hhcGU3ODk0LTM4IiB0cmFuc2Zvcm09InRyYW5zbGF0ZSgwLjA0NSwtMzMuNDQyNSkiPiYjeGE7CQkJCTx0aXRsZSBpZD0idGl0bGUxNDMzNzgiPnBhdGgzMTIyPC90aXRsZT4mI3hhOwkJCQkmI3hhOwkJCQkJPHBhdGggaWQ9InBhdGgxNDMzODAiIGlua3NjYXBlOmNvbm5lY3Rvci1jdXJ2YXR1cmU9IjAiIHN0eWxlPSJmaWxsOiNCQUQ4MEE7c3Ryb2tlOiM1NTZBOEE7c3Ryb2tlLXdpZHRoOjEuNTtzdHJva2UtbWl0ZXJsaW1pdDozOyIgZD0iICAgICAgTTM1LjI1LDc0LjYyYzAsMy41Mi03Ljg5LDYuMzctMTcuNjMsNi4zN0M3Ljg5LDgwLjk5LDAsNzguMTQsMCw3NC42MmMwLTMuNTEsOC4xMy02LjM2LDE3Ljg2LTYuMzYgICAgICBDMjcuNTgsNjguMjYsMzUuMjUsNzEuMTEsMzUuMjUsNzQuNjJ6Ii8+JiN4YTsJCQk8L2c+JiN4YTsJCTwvZz4mI3hhOwk8L2c+JiN4YTs8L2c+JiN4YTs8L3N2Zz4=;imageBorder=none;sketch=0;" vertex="1" parent="1">
          <mxGeometry x="172.71" y="520" width="97.29" height="122" as="geometry" />
        </mxCell>
        <mxCell id="ALcrk5kfa60zqdkue-nD-16" value="&lt;font color=&quot;#ff0000&quot; style=&quot;font-size: 35px&quot;&gt;D&lt;/font&gt;" style="text;strokeColor=none;fillColor=none;html=1;fontSize=24;fontStyle=1;verticalAlign=middle;align=center;sketch=1;" vertex="1" parent="1">
          <mxGeometry x="190" y="593" width="100" height="40" as="geometry" />
        </mxCell>
        <mxCell id="ALcrk5kfa60zqdkue-nD-17" value="" style="shape=image;verticalLabelPosition=bottom;verticalAlign=top;aspect=fixed;imageAspect=0;image=data:image/svg+xml,PHN2ZyB4bWxuczpjYz0iaHR0cDovL2NyZWF0aXZlY29tbW9ucy5vcmcvbnMjIiB4bWxuczpkYz0iaHR0cDovL3B1cmwub3JnL2RjL2VsZW1lbnRzLzEuMS8iIHhtbG5zOmlua3NjYXBlPSJodHRwOi8vd3d3Lmlua3NjYXBlLm9yZy9uYW1lc3BhY2VzL2lua3NjYXBlIiB4bWxuczpyZGY9Imh0dHA6Ly93d3cudzMub3JnLzE5OTkvMDIvMjItcmRmLXN5bnRheC1ucyMiIHhtbG5zOnNvZGlwb2RpPSJodHRwOi8vc29kaXBvZGkuc291cmNlZm9yZ2UubmV0L0RURC9zb2RpcG9kaS0wLmR0ZCIgeG1sbnM6c3ZnPSJodHRwOi8vd3d3LnczLm9yZy8yMDAwL3N2ZyIgeG1sbnM9Imh0dHA6Ly93d3cudzMub3JnLzIwMDAvc3ZnIiB4bWxuczp4bGluaz0iaHR0cDovL3d3dy53My5vcmcvMTk5OS94bGluayIgdmVyc2lvbj0iMS4xIiBpZD0ic3ZnNTMwNjEiIGlua3NjYXBlOnZlcnNpb249IjAuOTIuMyAoMjQwNTU0NiwgMjAxOC0wMy0xMSkiIHNvZGlwb2RpOmRvY25hbWU9InRhc2tfZmlsZV9vcmFuZ2Uuc3ZnIiB4PSIwcHgiIHk9IjBweCIgdmlld0JveD0iMCAwIDI3Ljc4IDM4LjI2IiBzdHlsZT0iZW5hYmxlLWJhY2tncm91bmQ6bmV3IDAgMCAyNy43OCAzOC4yNjsiIHhtbDpzcGFjZT0icHJlc2VydmUiPiYjeGE7PHNvZGlwb2RpOm5hbWVkdmlldyBib3JkZXJjb2xvcj0iIzY2NjY2NiIgYm9yZGVyb3BhY2l0eT0iMSIgZml0LW1hcmdpbi1ib3R0b209IjAiIGZpdC1tYXJnaW4tbGVmdD0iMCIgZml0LW1hcmdpbi1yaWdodD0iMCIgZml0LW1hcmdpbi10b3A9IjAiIGdyaWR0b2xlcmFuY2U9IjEwIiBndWlkZXRvbGVyYW5jZT0iMTAiIGlkPSJuYW1lZHZpZXc1MzA2MyIgaW5rc2NhcGU6Y3VycmVudC1sYXllcj0ic3ZnNTMwNjEiIGlua3NjYXBlOmN4PSIzNS43NDg2OTMiIGlua3NjYXBlOmN5PSIxOS4zNDIwNDEiIGlua3NjYXBlOnBhZ2VvcGFjaXR5PSIwIiBpbmtzY2FwZTpwYWdlc2hhZG93PSIyIiBpbmtzY2FwZTp3aW5kb3ctaGVpZ2h0PSIxMDE3IiBpbmtzY2FwZTp3aW5kb3ctbWF4aW1pemVkPSIxIiBpbmtzY2FwZTp3aW5kb3ctd2lkdGg9IjE5MjAiIGlua3NjYXBlOndpbmRvdy14PSItOCIgaW5rc2NhcGU6d2luZG93LXk9Ii04IiBpbmtzY2FwZTp6b29tPSIxMS40MzM0NDMiIG9iamVjdHRvbGVyYW5jZT0iMTAiIHBhZ2Vjb2xvcj0iI2ZmZmZmZiIgc2hvd2dyaWQ9ImZhbHNlIj4mI3hhOwk8L3NvZGlwb2RpOm5hbWVkdmlldz4mI3hhOzxnIGlkPSJzaGFwZTQ1NTAtMyIgdHJhbnNmb3JtPSJ0cmFuc2xhdGUoMC43NTAxOTYyMywtMi43MSkiPiYjeGE7CTx0aXRsZSBpZD0idGl0bGU1Mjk5MiI+cGF0aDIwNzU8L3RpdGxlPiYjeGE7CTxwYXRoIGlkPSJwYXRoNTI5OTQiIGlua3NjYXBlOmNvbm5lY3Rvci1jdXJ2YXR1cmU9IjAiIHN0eWxlPSJmaWxsOiNGRkZGRkY7IiBkPSJNMTQuOCwzLjQ2SDAuNTVDMC4yNCwzLjQ3LTAuMDEsMy43MywwLDQuMDQgICBjMCwwLDAsMCwwLDBsMCwzNS42Yy0wLjAxLDAuMzEsMC4yNCwwLjU3LDAuNTUsMC41OGMwLDAsMCwwLDAsMGwyNS4xOC0wLjAxYzAuMzEtMC4wMSwwLjU2LTAuMjcsMC41NS0wLjU4YzAsMCwwLDAsMCwwbDAtMjQuNjggICBMMTQuOCwzLjQ2eiIvPiYjeGE7PC9nPiYjeGE7PGcgaWQ9InNoYXBlNDU1MS01IiB0cmFuc2Zvcm09InRyYW5zbGF0ZSgxNS4wMzAxOTYsLTI4LjIxKSI+JiN4YTsJPHRpdGxlIGlkPSJ0aXRsZTUyOTk3Ij5wb2x5Z29uMjA3NzwvdGl0bGU+JiN4YTsJPHBhdGggaWQ9InBhdGg1Mjk5OSIgaW5rc2NhcGU6Y29ubmVjdG9yLWN1cnZhdHVyZT0iMCIgc3R5bGU9ImZpbGw6I0ZGQjkwMDsiIGQ9Ik0wLDI4LjVsMTIuMzEsMTEuNzFIMFYyOC41eiIvPiYjeGE7PC9nPiYjeGE7PGcgaWQ9InNoYXBlNDU1Mi03IiB0cmFuc2Zvcm09InRyYW5zbGF0ZSgwLjc1MDE5NjIzLC0yLjcxKSI+JiN4YTsJPHRpdGxlIGlkPSJ0aXRsZTUzMDAyIj5wYXRoMjA3OTwvdGl0bGU+JiN4YTsJJiN4YTsJCTxwYXRoIGlkPSJwYXRoNTMwMDQiIGlua3NjYXBlOmNvbm5lY3Rvci1jdXJ2YXR1cmU9IjAiIHN0eWxlPSJmaWxsOm5vbmU7c3Ryb2tlOiM1NTZBOEE7c3Ryb2tlLXdpZHRoOjEuNTtzdHJva2UtbWl0ZXJsaW1pdDozOyIgZD0iICAgTTE0LjgsMy40NkgwLjU1QzAuMjQsMy40Ny0wLjAxLDMuNzMsMCw0LjA0YzAsMCwwLDAsMCwwbDAsMzUuNmMtMC4wMSwwLjMxLDAuMjQsMC41NywwLjU1LDAuNThjMCwwLDAsMCwwLDBsMjUuMTgtMC4wMSAgIGMwLjMxLTAuMDEsMC41Ni0wLjI3LDAuNTUtMC41OGMwLDAsMCwwLDAsMGwwLTI0LjY4TDE0LjgsMy40NnoiLz4mI3hhOzwvZz4mI3hhOzxnIGlkPSJzaGFwZTQ1NTMtOSIgdHJhbnNmb3JtPSJ0cmFuc2xhdGUoMS41MzAxOTYyLC0zLjU0OTk5OSkiPiYjeGE7CTx0aXRsZSBpZD0idGl0bGU1MzAwNyI+cmVjdDIwODE8L3RpdGxlPiYjeGE7CTxyZWN0IGlkPSJyZWN0NTMwMDkiIHg9IjAiIHk9IjUuMDUiIHN0eWxlPSJmaWxsOiNFNUU1RTU7IiB3aWR0aD0iOC4yNSIgaGVpZ2h0PSIzNS4xNiIvPiYjeGE7PC9nPiYjeGE7PGcgaWQ9InNoYXBlNDU1NC0xMSIgdHJhbnNmb3JtPSJ0cmFuc2xhdGUoMTUuMDMwMTk2LC0yOC4yMSkiPiYjeGE7CTx0aXRsZSBpZD0idGl0bGU1MzAxMiI+cG9seWxpbmUyMDgzPC90aXRsZT4mI3hhOwk8cGF0aCBpZD0icGF0aDUzMDE0IiBpbmtzY2FwZTpjb25uZWN0b3ItY3VydmF0dXJlPSIwIiBzdHlsZT0iZmlsbDpub25lOyIgZD0iTTAsMjguNXYxMS43MWgxMkwwLDI4LjV6Ii8+JiN4YTsJJiN4YTsJCTxwYXRoIGlkPSJwYXRoNTMwMTYiIGlua3NjYXBlOmNvbm5lY3Rvci1jdXJ2YXR1cmU9IjAiIHN0eWxlPSJmaWxsOm5vbmU7c3Ryb2tlOiM1NTZBOEE7c3Ryb2tlLXdpZHRoOjEuNTtzdHJva2UtbWl0ZXJsaW1pdDozOyIgZD0iICAgTTAsMjguNXYxMS43MWgxMiIvPiYjeGE7PC9nPiYjeGE7PGcgaWQ9InNoYXBlNDU1NS0xNCIgdHJhbnNmb3JtPSJ0cmFuc2xhdGUoLTQuNDY5ODAzOCwtMi43MSkiPiYjeGE7CTx0aXRsZSBpZD0idGl0bGU1MzAxOSI+cmVjdDIwODU8L3RpdGxlPiYjeGE7CTxyZWN0IGlkPSJyZWN0NTMwMjEiIHg9IjAiIHk9IjIuNzEiIHN0eWxlPSJmaWxsOm5vbmU7IiB3aWR0aD0iMzcuNSIgaGVpZ2h0PSIzNy41Ii8+JiN4YTs8L2c+JiN4YTs8ZyBpZD0ic2hhcGU0NTU3LTE3IiB0cmFuc2Zvcm09InRyYW5zbGF0ZSg0LjExMDE5NjIsLTIyLjIxKSI+JiN4YTsJPHRpdGxlIGlkPSJ0aXRsZTUzMDI3Ij5wYXRoMjA4OTwvdGl0bGU+JiN4YTsJPHBhdGggaWQ9InBhdGg1MzAyOSIgaW5rc2NhcGU6Y29ubmVjdG9yLWN1cnZhdHVyZT0iMCIgc3R5bGU9ImZpbGw6IzU1NkE4QTsiIGQ9Ik0yLjE0LDM0LjMxdjUuOUgxLjIxdi00Ljc2ICAgYy0wLjE3LDAuMTItMC4zNSwwLjIzLTAuNTQsMC4zMUMwLjQ1LDM1Ljg1LDAuMjMsMzUuOTIsMCwzNS45OHYtMC43OWwwLjQ1LTAuMTZjMC4xNC0wLjA1LDAuMjktMC4xMiwwLjQzLTAuMTkgICBjMC4xNC0wLjA2LDAuMjgtMC4xNSwwLjQyLTAuMjNjMC4xNS0wLjA4LDAuMy0wLjE5LDAuNDUtMC4yOUwyLjE0LDM0LjMxeiIvPiYjeGE7PC9nPiYjeGE7PGcgaWQ9InNoYXBlNDU1OC0xOSIgdHJhbnNmb3JtPSJ0cmFuc2xhdGUoNC4xNzc2OTYyLC0xMy45NikiPiYjeGE7CTx0aXRsZSBpZD0idGl0bGU1MzAzMiI+cGF0aDIwOTE8L3RpdGxlPiYjeGE7CTxwYXRoIGlkPSJwYXRoNTMwMzQiIGlua3NjYXBlOmNvbm5lY3Rvci1jdXJ2YXR1cmU9IjAiIHN0eWxlPSJmaWxsOiM1NTZBOEE7IiBkPSJNMy42Miw0MC4yMUgwdi0wLjQ1YzAtMC4xNywwLjAyLTAuMzQsMC4wNy0wLjUxICAgYzAuMDUtMC4xNiwwLjEyLTAuMzEsMC4yMS0wLjQ1YzAuMDktMC4xNCwwLjE5LTAuMjgsMC4zLTAuNGMwLjExLTAuMTMsMC4yMy0wLjI1LDAuMzYtMC4zNmwwLjQxLTAuMzRsMC40LTAuMzMgICBjMC4xMy0wLjEsMC4yNC0wLjIxLDAuMzQtMC4zMWMwLjEtMC4wOSwwLjE4LTAuMiwwLjI2LTAuMzFjMC4wOC0wLjEsMC4xNC0wLjIyLDAuMTgtMC4zNGMwLjA0LTAuMTMsMC4wNi0wLjI2LDAuMDYtMC4zOSAgIGMwLTAuMTQtMC4wMi0wLjI3LTAuMDctMC40Yy0wLjA0LTAuMTEtMC4xMS0wLjIxLTAuMTktMC4yOGMtMC4wOS0wLjA4LTAuMTktMC4xNC0wLjMtMC4xN2MtMC4xMi0wLjA0LTAuMjUtMC4wNi0wLjM4LTAuMDUgICBjLTAuMjYsMC0wLjUxLDAuMDUtMC43NSwwLjE2Yy0wLjI2LDAuMTItMC41LDAuMjktMC43MSwwLjV2LTAuOWMwLjExLTAuMDksMC4yMy0wLjE3LDAuMzYtMC4yNGMwLjEyLTAuMDYsMC4yNS0wLjEyLDAuMzgtMC4xNiAgIGMwLjEzLTAuMDUsMC4yNi0wLjA4LDAuNC0wLjFjMC4xNS0wLjAxLDAuMzEtMC4wMSwwLjQ2LDBjMC4yNCwwLDAuNDgsMC4wNCwwLjcxLDAuMTFjMC4yLDAuMDYsMC4zOCwwLjE2LDAuNTQsMC4zICAgYzAuMTUsMC4xMywwLjI3LDAuMywwLjM1LDAuNDljMC4wOCwwLjIyLDAuMTIsMC40NSwwLjEyLDAuNjhjMCwwLjIxLTAuMDMsMC40My0wLjA5LDAuNjNjLTAuMDYsMC4xOS0wLjE0LDAuMzctMC4yNSwwLjUzICAgYy0wLjExLDAuMTctMC4yNCwwLjMyLTAuMzgsMC40NmMtMC4xNSwwLjE0LTAuMzIsMC4yOS0wLjUsMC40NWwtMC40NywwLjM2Yy0wLjE2LDAuMTItMC4yOSwwLjI0LTAuNDIsMC4zNiAgIGMtMC4xMSwwLjEtMC4yMSwwLjIyLTAuMywwLjM0Yy0wLjA3LDAuMS0wLjExLDAuMjItMC4xMSwwLjM0bDIuNjEsMC4wMUwzLjYyLDQwLjIxeiIvPiYjeGE7PC9nPiYjeGE7PGcgaWQ9InNoYXBlNDU1OS0yMSIgdHJhbnNmb3JtPSJ0cmFuc2xhdGUoNC4yNzUxOTYyLC01LjYwNSkiPiYjeGE7CTx0aXRsZSBpZD0idGl0bGU1MzAzNyI+cGF0aDIwOTM8L3RpdGxlPiYjeGE7CTxwYXRoIGlkPSJwYXRoNTMwMzkiIGlua3NjYXBlOmNvbm5lY3Rvci1jdXJ2YXR1cmU9IjAiIHN0eWxlPSJmaWxsOiM1NTZBOEE7IiBkPSJNMCwzOS45di0wLjg5YzAuMzYsMC4yOSwwLjgxLDAuNDUsMS4yNywwLjQ1ICAgYzAuMzMsMC4wMiwwLjY2LTAuMDcsMC45My0wLjI2YzAuMjMtMC4xNywwLjM2LTAuNDMsMC4zNS0wLjcxYy0wLjAxLTAuNjYtMC41MS0wLjk4LTEuNS0wLjk4SDAuNTl2LTAuNzVIMSAgIGMwLjg5LDAsMS4zNC0wLjMxLDEuMzQtMC45M3MtMC4zNS0wLjkxLTEuMDQtMC44NmMtMC40LDAtMC43OSwwLjE1LTEuMSwwLjQxdi0wLjgxYzAuNDMtMC4yMywwLjkxLTAuMzQsMS4zOS0wLjMzICAgYzAuNDQtMC4wMiwwLjg4LDAuMTIsMS4yMywwLjM5YzAuMywwLjIzLDAuNDgsMC42LDAuNDgsMC45OGMwLjA2LDAuNzItMC40NCwxLjM3LTEuMTYsMS41YzAuMzcsMC4wMiwwLjcyLDAuMTcsMC45OSwwLjQzICAgYzAuMjQsMC4yNSwwLjM3LDAuNTksMC4zNiwwLjk0YzAuMDEsMC40OS0wLjIxLDAuOTUtMC41OSwxLjI1Yy0wLjQ0LDAuMzQtMC45OSwwLjUxLTEuNTQsMC40OEMwLjg5LDQwLjIzLDAuNDIsNDAuMTIsMCwzOS45eiIvPiYjeGE7PC9nPiYjeGE7PHBhdGggaWQ9InBhdGg1MzA0NSIgaW5rc2NhcGU6Y29ubmVjdG9yLWN1cnZhdHVyZT0iMCIgc3R5bGU9ImZpbGw6bm9uZTtzdHJva2U6I0FCQUJBQjtzdHJva2Utd2lkdGg6MS41O3N0cm9rZS1taXRlcmxpbWl0OjM7IiBkPSIgIE0xMS4yOCwzMS41aDEyIi8+JiN4YTs8cGF0aCBpZD0icGF0aDUzMDUwIiBpbmtzY2FwZTpjb25uZWN0b3ItY3VydmF0dXJlPSIwIiBzdHlsZT0iZmlsbDpub25lO3N0cm9rZTojQUJBQkFCO3N0cm9rZS13aWR0aDoxLjU7c3Ryb2tlLW1pdGVybGltaXQ6MzsiIGQ9IiAgTTExLjI4LDI0aDEyIi8+JiN4YTs8cGF0aCBpZD0icGF0aDUzMDU1IiBpbmtzY2FwZTpjb25uZWN0b3ItY3VydmF0dXJlPSIwIiBzdHlsZT0iZmlsbDpub25lO3N0cm9rZTojQUJBQkFCO3N0cm9rZS13aWR0aDoxLjU7c3Ryb2tlLW1pdGVybGltaXQ6MzsiIGQ9IiAgTTExLjI4LDE2LjVoMTIiLz4mI3hhOzwvc3ZnPg==;shadow=0;fontSize=27;strokeWidth=4;fillColor=none;sketch=1;strokeColor=#457B9D;fontColor=#1D3557;" vertex="1" parent="1">
          <mxGeometry x="255.79" y="760" width="44.21" height="60" as="geometry" />
        </mxCell>
        <mxCell id="ALcrk5kfa60zqdkue-nD-21" value="" style="shape=image;verticalLabelPosition=bottom;verticalAlign=top;aspect=fixed;imageAspect=0;image=data:image/svg+xml,PHN2ZyB4bWxuczpjYz0iaHR0cDovL2NyZWF0aXZlY29tbW9ucy5vcmcvbnMjIiB4bWxuczpkYz0iaHR0cDovL3B1cmwub3JnL2RjL2VsZW1lbnRzLzEuMS8iIHhtbG5zOmlua3NjYXBlPSJodHRwOi8vd3d3Lmlua3NjYXBlLm9yZy9uYW1lc3BhY2VzL2lua3NjYXBlIiB4bWxuczpyZGY9Imh0dHA6Ly93d3cudzMub3JnLzE5OTkvMDIvMjItcmRmLXN5bnRheC1ucyMiIHhtbG5zOnNvZGlwb2RpPSJodHRwOi8vc29kaXBvZGkuc291cmNlZm9yZ2UubmV0L0RURC9zb2RpcG9kaS0wLmR0ZCIgeG1sbnM6c3ZnPSJodHRwOi8vd3d3LnczLm9yZy8yMDAwL3N2ZyIgeG1sbnM9Imh0dHA6Ly93d3cudzMub3JnLzIwMDAvc3ZnIiB4bWxuczp4bGluaz0iaHR0cDovL3d3dy53My5vcmcvMTk5OS94bGluayIgdmVyc2lvbj0iMS4xIiBpZD0ic3ZnMTQzMzg3IiBpbmtzY2FwZTp2ZXJzaW9uPSIwLjkyLjMgKDI0MDU1NDYsIDIwMTgtMDMtMTEpIiBzb2RpcG9kaTpkb2NuYW1lPSJkYXRhYmFzZV9zZXJ2ZXIuc3ZnIiB4PSIwcHgiIHk9IjBweCIgdmlld0JveD0iMCAwIDYzLjA0IDc5LjQ5IiBzdHlsZT0iZW5hYmxlLWJhY2tncm91bmQ6bmV3IDAgMCA2My4wNCA3OS40OTsiIHhtbDpzcGFjZT0icHJlc2VydmUiPiYjeGE7PHNvZGlwb2RpOm5hbWVkdmlldyBib3JkZXJjb2xvcj0iIzY2NjY2NiIgYm9yZGVyb3BhY2l0eT0iMSIgZml0LW1hcmdpbi1ib3R0b209IjAiIGZpdC1tYXJnaW4tbGVmdD0iMCIgZml0LW1hcmdpbi1yaWdodD0iMCIgZml0LW1hcmdpbi10b3A9IjAiIGdyaWR0b2xlcmFuY2U9IjEwIiBndWlkZXRvbGVyYW5jZT0iMTAiIGlkPSJuYW1lZHZpZXcxNDMzODkiIGlua3NjYXBlOmN1cnJlbnQtbGF5ZXI9InN2ZzE0MzM4NyIgaW5rc2NhcGU6Y3g9IjQyLjAyOTk4NiIgaW5rc2NhcGU6Y3k9IjUyLjk5MTY0OCIgaW5rc2NhcGU6cGFnZW9wYWNpdHk9IjAiIGlua3NjYXBlOnBhZ2VzaGFkb3c9IjIiIGlua3NjYXBlOndpbmRvdy1oZWlnaHQ9IjEwMTciIGlua3NjYXBlOndpbmRvdy1tYXhpbWl6ZWQ9IjEiIGlua3NjYXBlOndpbmRvdy13aWR0aD0iMTkyMCIgaW5rc2NhcGU6d2luZG93LXg9Ii04IiBpbmtzY2FwZTp3aW5kb3cteT0iLTgiIGlua3NjYXBlOnpvb209IjguMDI4NDkxNSIgb2JqZWN0dG9sZXJhbmNlPSIxMCIgcGFnZWNvbG9yPSIjZmZmZmZmIiBzaG93Z3JpZD0iZmFsc2UiPiYjeGE7CTwvc29kaXBvZGk6bmFtZWR2aWV3PiYjeGE7PGcgaWQ9ImcxNDMzODUiIHRyYW5zZm9ybT0idHJhbnNsYXRlKC0wLjc1LC0wLjc1MDE2NjY1KSI+JiN4YTsJPHRpdGxlIGlkPSJ0aXRsZTE0MzI4NCI+UGFnZS0xPC90aXRsZT4mI3hhOwk8ZyBpZD0iZ3JvdXA3ODc0LTEiIHRyYW5zZm9ybT0idHJhbnNsYXRlKDEuNSwtMS41KSI+JiN4YTsJCTx0aXRsZSBpZD0idGl0bGUxNDMyODYiPkRhdGFiYXNlIFNlcnZlcjwvdGl0bGU+JiN4YTsJCTxnIGlkPSJncm91cDc4NzUtMiIgdHJhbnNmb3JtPSJ0cmFuc2xhdGUoMCwtOS43NDI1KSI+JiN4YTsJCQk8dGl0bGUgaWQ9InRpdGxlMTQzMjg4Ij5nMzExNC4yMTA4NDwvdGl0bGU+JiN4YTsJCQk8ZyBpZD0ic2hhcGU3ODc2LTMiPiYjeGE7CQkJCTx0aXRsZSBpZD0idGl0bGUxNDMyOTAiPnJlY3QzMDg2PC90aXRsZT4mI3hhOwkJCQkmI3hhOwkJCQkJPHJlY3QgaWQ9InJlY3QxNDMyOTIiIHk9IjEyLjc0IiBzdHlsZT0iZmlsbDojRkZGRkZGO3N0cm9rZTojNTU2QThBO3N0cm9rZS13aWR0aDoxLjU7c3Ryb2tlLW1pdGVybGltaXQ6MzsiIHdpZHRoPSIzOS43NSIgaGVpZ2h0PSI2OC4yNSIvPiYjeGE7CQkJPC9nPiYjeGE7CQkJPGcgaWQ9Imdyb3VwNzg3Ny01IiB0cmFuc2Zvcm09InRyYW5zbGF0ZSgxLjUsLTAuNzUpIj4mI3hhOwkJCQk8dGl0bGUgaWQ9InRpdGxlMTQzMjk1Ij5nMzEwNjwvdGl0bGU+JiN4YTsJCQkJPGcgaWQ9InNoYXBlNzg3OC02IiB0cmFuc2Zvcm09InRyYW5zbGF0ZSgxOCkiPiYjeGE7CQkJCQk8dGl0bGUgaWQ9InRpdGxlMTQzMjk3Ij5yZWN0MzA4ODwvdGl0bGU+JiN4YTsJCQkJCTxyZWN0IGlkPSJyZWN0MTQzMjk5IiB5PSIxNC4yNCIgc3R5bGU9ImZpbGw6I0U1RTVFNTsiIHdpZHRoPSIxOS41IiBoZWlnaHQ9IjY2Ljc1Ii8+JiN4YTsJCQkJPC9nPiYjeGE7CQkJCTxnIGlkPSJzaGFwZTc4NzktOCIgdHJhbnNmb3JtPSJ0cmFuc2xhdGUoMCwtNDgpIj4mI3hhOwkJCQkJPHRpdGxlIGlkPSJ0aXRsZTE0MzMwMiI+cmVjdDMwOTA8L3RpdGxlPiYjeGE7CQkJCQk8cmVjdCBpZD0icmVjdDE0MzMwNCIgeT0iNzguNzQiIHN0eWxlPSJmaWxsOiMyQkM3RjQ7IiB3aWR0aD0iMTgiIGhlaWdodD0iMi4yNSIvPiYjeGE7CQkJCTwvZz4mI3hhOwkJCQk8ZyBpZD0ic2hhcGU3ODgwLTEwIiB0cmFuc2Zvcm09InRyYW5zbGF0ZSgwLC01OC41KSI+JiN4YTsJCQkJCTx0aXRsZSBpZD0idGl0bGUxNDMzMDciPnBvbHlnb24zMDkyPC90aXRsZT4mI3hhOwkJCQkJPHJlY3QgaWQ9InJlY3QxNDMzMDkiIHk9Ijc4Ljc0IiBzdHlsZT0iZmlsbDpub25lOyIgd2lkdGg9IjI3IiBoZWlnaHQ9IjIuMjUiLz4mI3hhOwkJCQk8L2c+JiN4YTsJCQkJPGcgaWQ9InNoYXBlNzg4MS0xMiIgdHJhbnNmb3JtPSJ0cmFuc2xhdGUoMCwtNTguNSkiPiYjeGE7CQkJCQk8dGl0bGUgaWQ9InRpdGxlMTQzMzEyIj5wb2x5bGluZTMwOTQ8L3RpdGxlPiYjeGE7CQkJCQk8cmVjdCBpZD0icmVjdDE0MzMxNCIgeT0iNzguNzQiIHN0eWxlPSJmaWxsOm5vbmU7IiB3aWR0aD0iMjciIGhlaWdodD0iMi4yNSIvPiYjeGE7CQkJCTwvZz4mI3hhOwkJCQk8ZyBpZD0ic2hhcGU3ODgyLTE0IiB0cmFuc2Zvcm09InRyYW5zbGF0ZSgwLC01My4yNSkiPiYjeGE7CQkJCQk8dGl0bGUgaWQ9InRpdGxlMTQzMzE3Ij5yZWN0MzA5NjwvdGl0bGU+JiN4YTsJCQkJCTxyZWN0IGlkPSJyZWN0MTQzMzE5IiB5PSI3OC43NCIgc3R5bGU9ImZpbGw6IzJCQzdGNDsiIHdpZHRoPSIxOCIgaGVpZ2h0PSIyLjI1Ii8+JiN4YTsJCQkJPC9nPiYjeGE7CQkJCTxnIGlkPSJzaGFwZTc4ODMtMTYiIHRyYW5zZm9ybT0idHJhbnNsYXRlKDAsLTU4LjUpIj4mI3hhOwkJCQkJPHRpdGxlIGlkPSJ0aXRsZTE0MzMyMiI+cmVjdDMwOTg8L3RpdGxlPiYjeGE7CQkJCQk8cmVjdCBpZD0icmVjdDE0MzMyNCIgeT0iNzguNzQiIHN0eWxlPSJmaWxsOiMyQkM3RjQ7IiB3aWR0aD0iMTgiIGhlaWdodD0iMi4yNSIvPiYjeGE7CQkJCTwvZz4mI3hhOwkJCQk8ZyBpZD0ic2hhcGU3ODg0LTE4IiB0cmFuc2Zvcm09InRyYW5zbGF0ZSgxOCwtNDgpIj4mI3hhOwkJCQkJPHRpdGxlIGlkPSJ0aXRsZTE0MzMyNyI+cmVjdDMxMDA8L3RpdGxlPiYjeGE7CQkJCQk8cmVjdCBpZD0icmVjdDE0MzMyOSIgeT0iNzguNzQiIHN0eWxlPSJmaWxsOiM1NTZBOEE7IiB3aWR0aD0iMTkuNSIgaGVpZ2h0PSIyLjI1Ii8+JiN4YTsJCQkJPC9nPiYjeGE7CQkJCTxnIGlkPSJzaGFwZTc4ODUtMjAiIHRyYW5zZm9ybT0idHJhbnNsYXRlKDE4LC01My4yNSkiPiYjeGE7CQkJCQk8dGl0bGUgaWQ9InRpdGxlMTQzMzMyIj5yZWN0MzEwMjwvdGl0bGU+JiN4YTsJCQkJCTxyZWN0IGlkPSJyZWN0MTQzMzM0IiB5PSI3OC43NCIgc3R5bGU9ImZpbGw6IzU1NkE4QTsiIHdpZHRoPSIxOS41IiBoZWlnaHQ9IjIuMjUiLz4mI3hhOwkJCQk8L2c+JiN4YTsJCQkJPGcgaWQ9InNoYXBlNzg4Ni0yMiIgdHJhbnNmb3JtPSJ0cmFuc2xhdGUoMTgsLTU4LjUpIj4mI3hhOwkJCQkJPHRpdGxlIGlkPSJ0aXRsZTE0MzMzNyI+cmVjdDMxMDQ8L3RpdGxlPiYjeGE7CQkJCQk8cmVjdCBpZD0icmVjdDE0MzMzOSIgeT0iNzguNzQiIHN0eWxlPSJmaWxsOiM1NTZBOEE7IiB3aWR0aD0iMTkuNSIgaGVpZ2h0PSIyLjI1Ii8+JiN4YTsJCQkJPC9nPiYjeGE7CQkJPC9nPiYjeGE7CQkJPGcgaWQ9InNoYXBlNzg4Ny0yNCIgdHJhbnNmb3JtPSJ0cmFuc2xhdGUoMC43NSwtNTkuMjUpIj4mI3hhOwkJCQk8dGl0bGUgaWQ9InRpdGxlMTQzMzQzIj5yZWN0MzEwODwvdGl0bGU+JiN4YTsJCQkJPHJlY3QgaWQ9InJlY3QxNDMzNDUiIHk9Ijc4Ljc0IiBzdHlsZT0iZmlsbDojNTU2QThBOyIgd2lkdGg9IjIuMjUiIGhlaWdodD0iMi4yNSIvPiYjeGE7CQkJPC9nPiYjeGE7CQkJPGcgaWQ9InNoYXBlNzg4OC0yNiIgdHJhbnNmb3JtPSJ0cmFuc2xhdGUoMC43NSwtNTQpIj4mI3hhOwkJCQk8dGl0bGUgaWQ9InRpdGxlMTQzMzQ4Ij5yZWN0MzExMDwvdGl0bGU+JiN4YTsJCQkJPHJlY3QgaWQ9InJlY3QxNDMzNTAiIHk9Ijc4Ljc0IiBzdHlsZT0iZmlsbDojNTU2QThBOyIgd2lkdGg9IjIuMjUiIGhlaWdodD0iMi4yNSIvPiYjeGE7CQkJPC9nPiYjeGE7CQkJPGcgaWQ9InNoYXBlNzg4OS0yOCIgdHJhbnNmb3JtPSJ0cmFuc2xhdGUoMC43NSwtNDguNzUpIj4mI3hhOwkJCQk8dGl0bGUgaWQ9InRpdGxlMTQzMzUzIj5yZWN0MzExMjwvdGl0bGU+JiN4YTsJCQkJPHJlY3QgaWQ9InJlY3QxNDMzNTUiIHk9Ijc4Ljc0IiBzdHlsZT0iZmlsbDojNTU2QThBOyIgd2lkdGg9IjIuMjUiIGhlaWdodD0iMi4yNSIvPiYjeGE7CQkJPC9nPiYjeGE7CQk8L2c+JiN4YTsJCTxnIGlkPSJncm91cDc4OTAtMzAiIHRyYW5zZm9ybT0idHJhbnNsYXRlKDI2LjI1KSI+JiN4YTsJCQk8dGl0bGUgaWQ9InRpdGxlMTQzMzU5Ij5nMzEyNC4yMTA5OTwvdGl0bGU+JiN4YTsJCQk8ZyBpZD0ic2hhcGU3ODkxLTMxIj4mI3hhOwkJCQk8dGl0bGUgaWQ9InRpdGxlMTQzMzYxIj5wYXRoMzExNjwvdGl0bGU+JiN4YTsJCQkJPHBhdGggaWQ9InBhdGgxNDMzNjMiIGlua3NjYXBlOmNvbm5lY3Rvci1jdXJ2YXR1cmU9IjAiIHN0eWxlPSJmaWxsOiNGRkZGRkY7IiBkPSJNMzEuNzksNDAuODJsLTEwLjM1LDAuMDlMMCw0MS4wOXYzMy4zNSAgICAgIGMwLDMuNDIsNy41LDYuMzcsMTcuMjUsNi41NWgwLjM3YzEuMzIsMCwyLjYtMC4wNywzLjgyLTAuMTljMy41Ny0wLjIyLDcuMDgtMS4wNywxMC4zNS0yLjUzYzIuMTktMS4wOSwzLjQ2LTIuNDIsMy40Ni0zLjgzICAgICAgVjQwLjc5TDMxLjc5LDQwLjgyeiIvPiYjeGE7CQkJPC9nPiYjeGE7CQkJPGcgaWQ9InNoYXBlNzg5Mi0zMyIgdHJhbnNmb3JtPSJ0cmFuc2xhdGUoMjEuMTUsLTAuMTg3NSkiPiYjeGE7CQkJCTx0aXRsZSBpZD0idGl0bGUxNDMzNjYiPnBhdGgzMTE4PC90aXRsZT4mI3hhOwkJCQk8cGF0aCBpZD0icGF0aDE0MzM2OCIgaW5rc2NhcGU6Y29ubmVjdG9yLWN1cnZhdHVyZT0iMCIgc3R5bGU9ImZpbGw6I0U1RTVFNTsiIGQ9Ik0xMC4zNSw0MS4wMXYzNy40NSAgICAgIEM3LjA4LDc5LjkyLDMuNTcsODAuNzcsMCw4MC45OVY0MS4xTDEwLjM1LDQxLjAxeiIvPiYjeGE7CQkJPC9nPiYjeGE7CQkJPGcgaWQ9InNoYXBlNzg5My0zNSI+JiN4YTsJCQkJPHRpdGxlIGlkPSJ0aXRsZTE0MzM3MSI+cGF0aDMxMjA8L3RpdGxlPiYjeGE7CQkJCTxwYXRoIGlkPSJwYXRoMTQzMzczIiBpbmtzY2FwZTpjb25uZWN0b3ItY3VydmF0dXJlPSIwIiBzdHlsZT0iZmlsbDpub25lOyIgZD0iTTAsNDEuMDl2MzMuMzVjMCwzLjQyLDcuNDYsNi4zNywxNy4yNSw2LjU1aDAuMzcgICAgICBjOS45Ny0wLjExLDE3LjYzLTMuMDksMTcuNjMtNi41NVY0MC43OUwwLDQxLjA5eiIvPiYjeGE7CQkJCSYjeGE7CQkJCQk8cGF0aCBpZD0icGF0aDE0MzM3NSIgaW5rc2NhcGU6Y29ubmVjdG9yLWN1cnZhdHVyZT0iMCIgc3R5bGU9ImZpbGw6bm9uZTtzdHJva2U6IzU1NkE4QTtzdHJva2Utd2lkdGg6MS41O3N0cm9rZS1taXRlcmxpbWl0OjM7IiBkPSIgICAgICBNMCw0MS4wOXYzMy4zNWMwLDMuNDIsNy40Niw2LjM3LDE3LjI1LDYuNTVoMC4zN2M5Ljk3LTAuMTEsMTcuNjMtMy4wOSwxNy42My02LjU1VjQwLjc5Ii8+JiN4YTsJCQk8L2c+JiN4YTsJCQk8ZyBpZD0ic2hhcGU3ODk0LTM4IiB0cmFuc2Zvcm09InRyYW5zbGF0ZSgwLjA0NSwtMzMuNDQyNSkiPiYjeGE7CQkJCTx0aXRsZSBpZD0idGl0bGUxNDMzNzgiPnBhdGgzMTIyPC90aXRsZT4mI3hhOwkJCQkmI3hhOwkJCQkJPHBhdGggaWQ9InBhdGgxNDMzODAiIGlua3NjYXBlOmNvbm5lY3Rvci1jdXJ2YXR1cmU9IjAiIHN0eWxlPSJmaWxsOiNCQUQ4MEE7c3Ryb2tlOiM1NTZBOEE7c3Ryb2tlLXdpZHRoOjEuNTtzdHJva2UtbWl0ZXJsaW1pdDozOyIgZD0iICAgICAgTTM1LjI1LDc0LjYyYzAsMy41Mi03Ljg5LDYuMzctMTcuNjMsNi4zN0M3Ljg5LDgwLjk5LDAsNzguMTQsMCw3NC42MmMwLTMuNTEsOC4xMy02LjM2LDE3Ljg2LTYuMzYgICAgICBDMjcuNTgsNjguMjYsMzUuMjUsNzEuMTEsMzUuMjUsNzQuNjJ6Ii8+JiN4YTsJCQk8L2c+JiN4YTsJCTwvZz4mI3hhOwk8L2c+JiN4YTs8L2c+JiN4YTs8L3N2Zz4=;shadow=0;dashed=1;dashPattern=1 1;fontSize=27;strokeWidth=3;fillColor=none;sketch=1;strokeColor=#457B9D;fontColor=#1D3557;" vertex="1" parent="1">
          <mxGeometry x="429.99999999999994" y="847" width="95.7" height="120" as="geometry" />
        </mxCell>
        <mxCell id="ALcrk5kfa60zqdkue-nD-18" value="" style="curved=1;endArrow=classic;html=1;rounded=0;fontSize=35;fontColor=#FF0000;strokeColor=#457B9D;strokeWidth=2;sketch=1;" edge="1" parent="1" target="ALcrk5kfa60zqdkue-nD-2">
          <mxGeometry width="50" height="50" relative="1" as="geometry">
            <mxPoint x="300" y="780" as="sourcePoint" />
            <mxPoint x="340" y="760" as="targetPoint" />
            <Array as="points">
              <mxPoint x="430" y="760" />
            </Array>
          </mxGeometry>
        </mxCell>
        <mxCell id="ALcrk5kfa60zqdkue-nD-19" value="" style="curved=1;endArrow=classic;html=1;rounded=0;sketch=1;fontSize=35;fontColor=#FF0000;strokeColor=#457B9D;strokeWidth=2;entryX=0.25;entryY=1;entryDx=0;entryDy=0;dashed=1;exitX=0;exitY=0.75;exitDx=0;exitDy=0;" edge="1" parent="1" target="ALcrk5kfa60zqdkue-nD-15" source="ALcrk5kfa60zqdkue-nD-17">
          <mxGeometry width="50" height="50" relative="1" as="geometry">
            <mxPoint x="240" y="830" as="sourcePoint" />
            <mxPoint x="240" y="780" as="targetPoint" />
            <Array as="points">
              <mxPoint x="150" y="770" />
            </Array>
          </mxGeometry>
        </mxCell>
        <mxCell id="ALcrk5kfa60zqdkue-nD-20" value="&lt;b&gt;&lt;font style=&quot;font-size: 32px&quot;&gt;Delete Node D&lt;/font&gt;&lt;/b&gt;" style="text;html=1;align=center;verticalAlign=middle;resizable=0;points=[];autosize=1;strokeColor=none;fillColor=none;fontSize=35;fontColor=#FF0000;" vertex="1" parent="1">
          <mxGeometry x="452.15" y="600" width="230" height="50" as="geometry" />
        </mxCell>
        <mxCell id="ALcrk5kfa60zqdkue-nD-11" value="C" style="text;html=1;strokeColor=none;fillColor=none;align=center;verticalAlign=middle;whiteSpace=wrap;rounded=0;shadow=0;fontSize=27;sketch=1;fontColor=#1D3557;" vertex="1" parent="1">
          <mxGeometry x="466.7" y="923" width="60" height="30" as="geometry" />
        </mxCell>
      </root>
    </mxGraphModel>
  </diagram>
</mxfile>
